<svg height="512" viewBox="0 0 128 128" width="512" xmlns="http://www.w3.org/2000/svg"><g><g><path d="m97.861 7-43.04 43.04-19.38 19.38-15.98 15.98a3.127 3.127 0 0 0 4.23 4.6l37.861-32.551 37.019-37.009 17.94 17.93a2.627 2.627 0 0 0 3.9-3.51z" fill="#696eaf"/><path d="m19.263 14.065-5.912-3.08-3.175 2.433 23.578 30.773c2.029 2.649 5.081 5.407 8.4 5.722l15.016 1.824-1.393-2.46a89.631 89.631 0 0 0 -36.514-35.212z" fill="#d1d1fd"/><path d="m54.483 77.822a10.363 10.363 0 0 1 -1.8-8.926l-20.157-3.289 15.119 19.734a18 18 0 1 0 14.584 31.809c7.811-6.148 8.9-17.6 2.86-25.484zm1.482 31.53a8 8 0 1 1 1.485-11.216 8.009 8.009 0 0 1 -1.485 11.216z" fill="#d1d1fd"/><g fill="#ecebfd"><path d=""/><path d="m42.2 48.844h.022z"/><path d="m42.217 48.846h.037z"/><path d="m42.156 48.841h.039-.035z"/><path d="m76.661 60.86a18.274 18.274 0 0 0 -6.79 7.45l-13.91-18.16-13.628-1.293-.079-.007h.025l-.119-.011h-.009a12.017 12.017 0 0 1 -8.4-4.65l-23.57-30.769-3.181 2.43.78 4.04a89.7 89.7 0 0 0 16.87 37.58c1.21 1.58 2.48 3.12 3.79 4.62a19.915 19.915 0 0 0 14.84 6.74l9.4.07a10.357 10.357 0 0 1 8.15 4.05l10.611 13.85c6.04 7.88 17.38 9.81 25.35 3.87a18.005 18.005 0 0 0 -20.13-29.81zm14.23 21.732a8 8 0 1 1 1.485-11.216 8.008 8.008 0 0 1 -1.485 11.216z"/></g></g><path d="m5.817 20.268a92.178 92.178 0 0 0 17.246 38.419c1.184 1.545 2.486 3.133 3.876 4.724a21.749 21.749 0 0 0 4.212 3.689l1.64 2.141-14.744 14.744a5.128 5.128 0 0 0 6.933 7.544l15.12-12.75 4.162 5.432a20 20 0 1 0 19.2 34.511c8.555-6.735 10-19.418 3.211-28.273l-10.603-13.844a8.413 8.413 0 0 1 -1.7-5.508 8.4 8.4 0 0 1 4.875 3.07l10.611 13.85a20.68 20.68 0 0 0 16.4 8.117 19.548 19.548 0 0 0 11.736-3.861 20.005 20.005 0 0 0 -22.381-33.116 20.241 20.241 0 0 0 -5.948 5.593l-5.458-7.126 4.666-4.665 3.846 3.841a2 2 0 0 0 2.828-2.828l-3.845-3.841 2.122-2.122 6.105 6.1a2 2 0 1 0 2.828-2.828l-6.1-6.1 2.122-2.122 11.23 11.235a2 2 0 0 0 2.828-2.828l-11.235-11.234 2.12-2.12 16.971 16.971a2 2 0 0 0 2.828-2.828l-16.969-16.97 2.122-2.122 16.97 16.97a2 2 0 0 0 2.828-2.828l-16.97-16.969 2.122-2.122 16.969 16.97a2 2 0 0 0 2.828-2.829l-16.969-16.969 2.12-2.118 16.53 16.517a4.627 4.627 0 0 0 6.868-6.184l-6.95-8.58a2 2 0 1 0 -3.108 2.518l6.955 8.586a.627.627 0 0 1 -.045.831.655.655 0 0 1 -.892 0l-17.944-17.931a2 2 0 0 0 -2.828 0l-35.405 35.395-2.935-3.832-.619-1.1 39.503-39.503 8.473 10.464a2 2 0 1 0 3.108-2.518l-9.87-12.19a2 2 0 0 0 -2.968-.155l-40.33 40.33a90.763 90.763 0 0 0 -5.325-7.809 2 2 0 1 0 -3.181 2.426 86.328 86.328 0 0 1 4.993 7.289l-10.256-.973a10.061 10.061 0 0 1 -7-3.875l-22.36-29.183.573-.439 4.779 2.482a87.493 87.493 0 0 1 13.325 8.554 2 2 0 0 0 2.458-3.156 91.6 91.6 0 0 0 -13.937-8.947l-5.91-3.07a2.005 2.005 0 0 0 -2.139.188l-6.347 4.858a2 2 0 0 0 -.749 1.968zm16.583 68.206a1.132 1.132 0 0 1 -1.524-.069 1.113 1.113 0 0 1 0-1.591l14.37-14.37 2.417 3.156zm41.1 4.408c5.461 7.127 4.335 17.309-2.508 22.7a16 16 0 1 1 -12.963-28.282 2 2 0 0 0 1.2-3.179l-10.596-13.831a22.445 22.445 0 0 0 4.633.54l7.113.053a12.448 12.448 0 0 0 2.521 8.155zm14.2-30.316a16.005 16.005 0 0 1 17.9 26.5c-6.984 5.2-17.107 3.642-22.568-3.483l-10.61-13.85a12.419 12.419 0 0 0 -9.549-4.822c-.733-.014-7.565-.064-9.57-.081a17.908 17.908 0 0 1 -13.352-6.056c-1.329-1.522-2.576-3.042-3.708-4.52a88.139 88.139 0 0 1 -16.498-36.743l-.545-2.824.608-.465 22.354 29.184a14.071 14.071 0 0 0 9.8 5.425l12.938 1.227c18.341 23.942 12.013 15.681 13.383 17.468a2.019 2.019 0 0 0 3.384-.336 16.212 16.212 0 0 1 6.038-6.624zm14.4 21.613a10 10 0 1 0 -14.02-1.856 10 10 0 0 0 14.028 1.856zm-9.732-12.7a6 6 0 1 1 -1.113 8.412 6.008 6.008 0 0 1 1.121-8.412zm-37.6-40.507a2 2 0 1 1 -2.936 2.716c-1.06-1.145-2.2-2.3-3.4-3.438a2 2 0 0 1 2.756-2.9c1.258 1.195 2.462 2.414 3.58 3.622zm14.272 65.954a10 10 0 0 1 -10.822 15.651 2 2 0 0 1 1.144-3.833 6 6 0 0 0 6.5-9.388 5.992 5.992 0 0 0 -10.745 4.018 2 2 0 1 1 -3.993.232 9.993 9.993 0 0 1 17.916-6.68zm-11.022-40.695a4 4 0 1 1 -5.608-.742 4 4 0 0 1 5.608.742z" fill="#25262b"/></g></svg>