<?xml version="1.0" encoding="UTF-8" standalone="no"?>
<!-- Created with Inkscape (http://www.inkscape.org/) -->

<svg
   version="1.1"
   id="svg12534"
   xml:space="preserve"
   width="682.66669"
   height="682.66669"
   viewBox="0 0 682.66669 682.66669"
   xmlns="http://www.w3.org/2000/svg"
   xmlns:svg="http://www.w3.org/2000/svg"><defs
     id="defs12538"><clipPath
       clipPathUnits="userSpaceOnUse"
       id="clipPath12548"><path
         d="M 0,512 H 512 V 0 H 0 Z"
         id="path12546" /></clipPath></defs><g
     id="g12540"
     transform="matrix(1.3333333,0,0,-1.3333333,0,682.66667)"><g
       id="g12542"><g
         id="g12544"
         clip-path="url(#clipPath12548)"><g
           id="g12550"
           transform="translate(432.4409,260.8984)"><path
             d="M 0,0 C -9.55,-23.055 -10.151,-51.557 -0.601,-74.612 L 7.617,-90.71 h -354.721 c 0,0 -66.042,37.107 0,103.149 L 4.553,19.687 Z"
             style="fill:#f1f2f2;fill-opacity:1;fill-rule:nonzero;stroke:none"
             id="path12552" /></g><g
           id="g12554"
           transform="translate(440.0586,170.1855)"><path
             d="m 0,0 h -354.72 c 0,0 -66.04,37.11 0,103.15 L -3.06,110.4 -7.62,90.71 c -2.11,-5.11 -3.79,-10.48 -5.01,-16 h -321.88 c -12.47,0 -22.61,-10.14 -22.61,-22.6 0,-12.47 10.14,-22.61 22.61,-22.61 h 322 c 1.08,-4.61 2.51,-9.1 4.29,-13.4 z"
             style="fill:#dee1e1;fill-opacity:1;fill-rule:nonzero;stroke:none"
             id="path12556" /></g><g
           id="g12558"
           transform="translate(434.687,155.1279)"><path
             d="m 0,0 -324.24,0.511 c -38.845,0 -72.205,24.779 -72.205,63.625 0,8.579 -1.493,19.83 1.319,27.431 9.92,26.818 35.721,45.934 65.987,45.934 H 3.5 c 8.762,0 15.865,-7.104 15.865,-15.865 0,-8.762 -7.103,-15.865 -15.865,-15.865 h -251.75 l -24.586,-5.771 -21.382,5.771 h -34.921 c -21.321,0 -38.605,-17.285 -38.605,-38.606 0,-21.32 17.284,-38.604 38.605,-38.604 H 3.5 c 8.762,0 15.865,-7.104 15.865,-15.866 0,-0.632 -0.037,-1.256 -0.109,-1.868 C 18.332,2.945 8.13,0 0,0"
             style="fill:#b7e546;fill-opacity:1;fill-rule:nonzero;stroke:none"
             id="path12560" /></g><g
           id="g12562"
           transform="translate(453.9385,165.9561)"><path
             d="M 0,0 C -0.43,-3.631 -2.08,-6.891 -4.53,-9.351 -7.41,-12.221 -11.37,-14 -15.75,-14 L -180.087,-23.85 -348.39,-14 c -38.85,0 -70.34,31.489 -70.34,70.34 0,10.13 2.14,19.76 6,28.46 V 70.34 C -412.73,31.489 -381.24,0 -342.39,0 Z"
             style="fill:#abd641;fill-opacity:1;fill-rule:nonzero;stroke:none"
             id="path12564" /></g><g
           id="g12566"
           transform="translate(186.4365,214.6475)"><path
             d="M 0,0 V 46.251 H -32.966 L -44.67,45.076 -43.968,2 c 0,-1.408 1.418,-2.376 2.729,-1.862 l 8.272,2.022 9.254,3.623 c 0.469,0.184 0.99,0.184 1.459,0 L -2.729,-1.862 C -1.417,-2.376 0,-1.408 0,0"
             style="fill:#ef5227;fill-opacity:1;fill-rule:nonzero;stroke:none"
             id="path12568" /></g><g
           id="g12570"
           transform="translate(153.4707,260.8955)"><path
             d="m 0,0 v -44.09 l -10.27,-4.02 c -1.31,-0.51 -2.73,0.45 -2.73,1.86 V 0 Z"
             style="fill:#d83724;fill-opacity:1;fill-rule:nonzero;stroke:none"
             id="path12572" /></g><g
           id="g12574"
           transform="translate(386.8462,333.0156)"><path
             d="m 0,0 v -22.55 l -1,-10.001 c 0,-3.869 -3.14,-7 -7,-7 l -266.51,1 c -3.87,0 -7,3.131 -7,7 l -2,31.551 136.813,6.537 z"
             style="fill:#fdcd08;fill-opacity:1;fill-rule:nonzero;stroke:none"
             id="path12576" /></g><g
           id="g12578"
           transform="translate(455.5532,314.1914)"><path
             d="m 0,0 c -6.26,-15.432 -12.56,-30.656 -18.82,-46.088 -3.742,-9.224 2.981,-19.332 12.857,-19.332 l 11.576,-1 h 28.158 c 9.877,0 16.6,10.108 12.857,19.332 L 33.573,-14.906 25.362,0 Z"
             style="fill:#fdcd08;fill-opacity:1;fill-rule:nonzero;stroke:none"
             id="path12580" /></g><g
           id="g12582"
           transform="translate(465.6333,293.5977)"><path
             d="m 0,0 c 8.228,-0.749 16.858,1.411 23.493,5.687 l -7.02,17.545 -11.601,-3.467 0.001,0.003 -15.123,2.017 c -1.911,-4.71 -4.687,-11.397 -6.597,-16.107 0,0 0.001,-0.001 0.001,-0.001 -4.35,-10.723 -8.701,-21.447 -13.051,-32.169 -3.74,-9.231 2.98,-19.33 12.85,-19.33 h 16 c -9.87,0 -16.59,10.099 -12.85,19.33 3.251,8.008 6.5,16.014 9.748,24.022 C -3.476,-0.81 -1.785,0.163 0,0"
             style="fill:#faab18;fill-opacity:1;fill-rule:nonzero;stroke:none"
             id="path12584" /></g><g
           id="g12586"
           transform="translate(492.042,331.7607)"><path
             d="m 0,0 c 0,10.22 -6.518,18.902 -15.585,22.045 -2.352,0.814 -5.769,-0.636 -8.393,-0.636 -12.749,0 -20.596,-8.541 -20.596,-21.409 0,-12.869 9.538,-20.591 22.287,-20.591 2.625,0 4.35,-2.267 6.701,-1.453 C -6.518,-18.902 0,-10.22 0,0"
             style="fill:#fdcd08;fill-opacity:1;fill-rule:nonzero;stroke:none"
             id="path12588" /></g><g
           id="g12590"
           transform="translate(476.4561,309.7148)"><path
             d="m 0,0 c -2.35,-0.819 -4.88,-1.26 -7.5,-1.26 -12.75,0 -23.08,10.441 -23.08,23.311 0,12.859 10.33,23.3 23.08,23.3 2.62,0 5.15,-0.441 7.5,-1.26 C -9.07,40.95 -15.58,32.261 -15.58,22.051 -15.58,11.83 -9.07,3.141 0,0"
             style="fill:#faab18;fill-opacity:1;fill-rule:nonzero;stroke:none"
             id="path12592" /></g><g
           id="g12594"
           transform="translate(470.8052,408.7119)"><path
             d="m 0,0 -65.959,-22.834 -18,1.846 -128.029,-52.399 c -8.893,-3.078 -18.563,-3.078 -27.456,0 l -128.025,50.356 -17.999,0.196 L -451.432,0 c -7.529,2.606 -7.529,13.256 0,15.862 l 214.49,74.252 c 7.273,2.518 15.18,2.518 22.452,0 L 0,15.862 C 7.53,13.256 7.53,2.606 0,0"
             style="fill:#868491;fill-opacity:1;fill-rule:nonzero;stroke:none"
             id="path12596" /></g><g
           id="g12598"
           transform="translate(404.8462,392.6455)"><path
             d="M 0,0 V -6.771 L -146.03,-57.32 c -8.89,-3.08 -18.56,-3.08 -27.46,0 L -319.51,-6.771 V 0 c 0,14.27 10.19,26.45 24.24,28.979 44.64,8 90.23,12.05 135.51,12.05 45.28,0 90.88,-4.05 135.52,-12.05 C -17.44,27.75 -11.27,24.17 -6.85,18.88 -2.45,13.63 0,6.91 0,0"
             style="fill:#77777f;fill-opacity:1;fill-rule:nonzero;stroke:none"
             id="path12600" /></g><g
           id="g12602"
           transform="translate(386.8462,392.6455)"><path
             d="m 0,0 v -59.63 h -280.51 l -1,57.63 c 0,5.54 3.97,10.279 9.42,11.26 2.858,0.511 3.717,3.007 6.579,3.485 40.965,6.852 82.363,10.284 123.751,10.284 44.29,0 88.58,-3.929 132.34,-11.769 C -6.7,10.77 -4.34,9.34 -2.67,7.34 -0.99,5.34 0,2.77 0,0"
             style="fill:#868491;fill-opacity:1;fill-rule:nonzero;stroke:none"
             id="path12604" /></g><g
           id="g12606"
           transform="translate(386.8462,310.4648)"><path
             d="m 0,0 v -11 c 0,-3.869 -3.14,-7 -7,-7 h -269.51 c -3.866,0 -7,3.135 -7,7 v 33.551 l 9,6.537 9,-6.537 V 5 c 0,-2.761 2.239,-5 5,-5 z"
             style="fill:#faab18;fill-opacity:1;fill-rule:nonzero;stroke:none"
             id="path12608" /></g><g
           id="g12610"
           transform="translate(121.3364,405.3848)"><path
             d="m 0,0 v -72.369 h -18 v 59.63 c 0,5.54 3.97,10.279 9.42,11.26 C -5.72,-0.97 -2.86,-0.47 0,0"
             style="fill:#77777f;fill-opacity:1;fill-rule:nonzero;stroke:none"
             id="path12612" /></g><g
           id="g12614"
           transform="translate(458.8638,45.8477)"><path
             d="M 0,0 C -9.549,23.055 -9.549,48.959 0,72.014 L 3.043,85.532 H -405.87 c 0,0 -46.03,-50.042 2.991,-99.063 L 5.705,-16.596 Z"
             style="fill:#f1f2f2;fill-opacity:1;fill-rule:nonzero;stroke:none"
             id="path12616" /></g><g
           id="g12618"
           transform="translate(464.5684,29.2559)"><path
             d="m 0,0 -408.58,3.06 c -49.03,49.02 -2.99,99.06 -2.99,99.06 L -0.696,101.361 -5.7,88.609 C -7.55,84.149 -9.04,79.59 -10.17,74.97 h -375.29 c -12.47,0 -22.61,-10.14 -22.61,-22.6 0,-12.471 10.14,-22.61 22.61,-22.61 h 375.41 c 1.12,-4.46 2.57,-8.87 4.35,-13.17 z"
             style="fill:#dee1e1;fill-opacity:1;fill-rule:nonzero;stroke:none"
             id="path12620" /></g><g
           id="g12622"
           transform="translate(457.6807,14.7871)"><path
             d="m 0,0 -369.702,0.681 c -38.845,0 -73.021,21.921 -73.021,60.766 0,12.328 -3.015,29.304 2.557,39.379 11.985,21.671 35.074,36.345 61.591,36.345 H 6.948 c 8.762,0 15.865,-7.104 15.865,-15.865 0,-8.762 -7.103,-15.866 -15.865,-15.866 h -95.521 l -24.959,-5.525 -21.008,5.525 h -244.035 c -21.321,0 -38.605,-17.284 -38.605,-38.605 0,-21.32 17.284,-38.605 38.605,-38.605 H 6.948 c 8.762,0 15.865,-7.103 15.865,-15.865 0,-0.978 -0.088,-1.936 -0.258,-2.866 C 21.206,2.104 7.784,0 0,0"
             style="fill:#ef5227;fill-opacity:1;fill-rule:nonzero;stroke:none"
             id="path12624" /></g><g
           id="g12626"
           transform="translate(480.2383,24.2852)"><path
             d="M 0,0 C -0.59,-3.239 -2.16,-6.119 -4.39,-8.35 -7.26,-11.22 -11.23,-13 -15.61,-13 h -385.52 c -38.85,0 -70.34,31.49 -70.34,70.341 0,13.899 4.03,26.859 11,37.779 V 70.341 C -460.47,31.49 -428.98,0 -390.13,0 Z"
             style="fill:#d83724;fill-opacity:1;fill-rule:nonzero;stroke:none"
             id="path12628" /></g><g
           id="g12630"
           transform="translate(369.1079,73.6162)"><path
             d="M 0,0 V 46.626 H -30.967 L -44.704,45.789 -43.968,2 c 0,-1.408 1.418,-2.376 2.729,-1.862 l 10.27,2.804 7.256,2.841 c 0.469,0.184 0.989,0.184 1.459,0 L -2.729,-1.862 C -1.417,-2.376 0,-1.408 0,0"
             style="fill:#fdcd08;fill-opacity:1;fill-rule:nonzero;stroke:none"
             id="path12632" /></g><g
           id="g12634"
           transform="translate(338.1406,120.2451)"><path
             d="m 0,0 v -43.689 l -12.27,-4.8 C -13.58,-49 -15,-48.039 -15,-46.63 V 0 Z"
             style="fill:#faab18;fill-opacity:1;fill-rule:nonzero;stroke:none"
             id="path12636" /></g><g
           id="g12638"
           transform="translate(104.2773,153.1523)"><path
             d="m 0,0 c -38.845,0 -70.335,31.49 -70.335,70.335 v 0.001 c 0,38.845 31.49,70.335 70.335,70.335 h 339.639"
             style="fill:none;stroke:#000000;stroke-width:15;stroke-linecap:round;stroke-linejoin:round;stroke-miterlimit:10;stroke-dasharray:none;stroke-opacity:1"
             id="path12640" /></g><g
           id="g12642"
           transform="translate(201,184.8828)"><path
             d="m 0,0 h 235.917 c 8.762,0 15.865,-7.104 15.865,-15.865 0,-8.763 -7.103,-15.865 -15.865,-15.865"
             style="fill:none;stroke:#000000;stroke-width:15;stroke-linecap:round;stroke-linejoin:round;stroke-miterlimit:10;stroke-dasharray:none;stroke-opacity:1"
             id="path12644" /></g><g
           id="g12646"
           transform="translate(436.9165,262.0928)"><path
             d="m 0,0 h -332.639 c -21.321,0 -38.605,-17.284 -38.605,-38.605 0,-21.321 17.284,-38.605 38.605,-38.605 h 61.722"
             style="fill:none;stroke:#000000;stroke-width:15;stroke-linecap:round;stroke-linejoin:round;stroke-miterlimit:10;stroke-dasharray:none;stroke-opacity:1"
             id="path12648" /></g><g
           id="g12650"
           transform="translate(430.5693,259.4951)"><path
             d="M 0,0 C -9.55,-23.056 -9.55,-48.959 0,-72.015"
             style="fill:none;stroke:#000000;stroke-width:15;stroke-linecap:round;stroke-linejoin:round;stroke-miterlimit:10;stroke-dasharray:none;stroke-opacity:1"
             id="path12652" /></g><g
           id="g12654"
           transform="translate(457.5933,119.0566)"><path
             d="M 0,0 C -9.549,-23.056 -9.549,-48.959 0,-72.015"
             style="fill:none;stroke:#000000;stroke-width:15;stroke-linecap:round;stroke-linejoin:round;stroke-miterlimit:10;stroke-dasharray:none;stroke-opacity:1"
             id="path12656" /></g><g
           id="g12658"
           transform="translate(139.1982,261.5645)"><path
             d="m 0,0 v -48.653 l 22.984,9 22.984,-9 V 0"
             style="fill:none;stroke:#000000;stroke-width:15;stroke-linecap:round;stroke-linejoin:round;stroke-miterlimit:10;stroke-dasharray:none;stroke-opacity:1"
             id="path12660" /></g><g
           id="g12662"
           transform="translate(409,44.2119)"><path
             d="m 0,0 h 54.358 c 8.763,0 15.866,-7.104 15.866,-15.865 0,-8.763 -7.103,-15.865 -15.866,-15.865 h -385.523 c -38.845,0 -70.335,31.49 -70.335,70.334 v 10e-4 c 0,38.845 31.49,70.335 70.335,70.335 H 54.358 c 8.763,0 15.866,-7.103 15.866,-15.865 0,-8.762 -7.103,-15.865 -15.866,-15.865 h -385.523 c -21.321,0 -38.605,-17.284 -38.605,-38.606 C -369.77,17.284 -352.486,0 -331.165,0 H -35"
             style="fill:none;stroke:#000000;stroke-width:15;stroke-linecap:round;stroke-linejoin:round;stroke-miterlimit:10;stroke-dasharray:none;stroke-opacity:1"
             id="path12664" /></g><g
           id="g12666"
           transform="translate(321.8696,120.5332)"><path
             d="m 0,0 v -48.653 l 22.984,9 22.984,-9 V 0"
             style="fill:none;stroke:#000000;stroke-width:15;stroke-linecap:round;stroke-linejoin:round;stroke-miterlimit:10;stroke-dasharray:none;stroke-opacity:1"
             id="path12668" /></g><g
           id="g12670"
           transform="translate(179.8271,479.4883)"><path
             d="m 0,0 52.499,18.174 c 7.149,2.475 14.922,2.475 22.072,0 L 285.428,-54.82 c 7.402,-2.563 7.402,-13.032 0,-15.594 L 203.229,-98.87"
             style="fill:none;stroke:#000000;stroke-width:15;stroke-linecap:round;stroke-linejoin:round;stroke-miterlimit:10;stroke-dasharray:none;stroke-opacity:1"
             id="path12672" /></g><g
           id="g12674"
           transform="translate(103.1465,380.7988)"><path
             d="m 0,0 -81.678,28.275 c -7.402,2.563 -7.402,13.032 0,15.594 l 124.676,43.16"
             style="fill:none;stroke:#000000;stroke-width:15;stroke-linecap:round;stroke-linejoin:round;stroke-miterlimit:10;stroke-dasharray:none;stroke-opacity:1"
             id="path12676" /></g><g
           id="g12678"
           transform="translate(470.8066,415.4873)"><path
             d="M 0,0 V -58.657"
             style="fill:none;stroke:#000000;stroke-width:15;stroke-linecap:round;stroke-linejoin:round;stroke-miterlimit:10;stroke-dasharray:none;stroke-opacity:1"
             id="path12680" /></g><g
           id="g12682"
           transform="translate(456.6079,315.8711)"><path
             d="m 0,0 -18.463,-45.51 c -3.679,-9.068 2.93,-19.006 12.639,-19.006 h 40.045 c 9.709,0 16.318,9.938 12.639,19.006 L 28.421,-0.059"
             style="fill:none;stroke:#000000;stroke-width:15;stroke-linecap:round;stroke-linejoin:round;stroke-miterlimit:10;stroke-dasharray:none;stroke-opacity:1"
             id="path12684" /></g><g
           id="g12686"
           transform="translate(493.5,333.9229)"><path
             d="m 0,0 c 0,12.651 -10.16,22.907 -22.693,22.907 -12.534,0 -22.694,-10.256 -22.694,-22.907 0,-12.65 10.16,-22.906 22.694,-22.906 C -10.16,-22.906 0,-12.65 0,0 Z"
             style="fill:none;stroke:#000000;stroke-width:15;stroke-linecap:round;stroke-linejoin:round;stroke-miterlimit:10;stroke-dasharray:none;stroke-opacity:1"
             id="path12688" /></g><g
           id="g12690"
           transform="translate(104.0093,294.7939)"><path
             d="m 0,0 v 98.484 c 0,5.445 3.901,10.108 9.26,11.069 86.042,15.429 174.143,15.429 260.184,0 h 10e-4 c 5.359,-0.961 9.26,-5.624 9.26,-11.069 V 0"
             style="fill:none;stroke:#000000;stroke-width:15;stroke-linecap:round;stroke-linejoin:round;stroke-miterlimit:10;stroke-dasharray:none;stroke-opacity:1"
             id="path12692" /></g><g
           id="g12694"
           transform="translate(329,334.6611)"><path
             d="M 0,0 H 53.714"
             style="fill:none;stroke:#000000;stroke-width:15;stroke-linecap:round;stroke-linejoin:round;stroke-miterlimit:10;stroke-dasharray:none;stroke-opacity:1"
             id="path12696" /></g><g
           id="g12698"
           transform="translate(104.0093,334.6611)"><path
             d="M 0,0 H 189.991"
             style="fill:none;stroke:#000000;stroke-width:15;stroke-linecap:round;stroke-linejoin:round;stroke-miterlimit:10;stroke-dasharray:none;stroke-opacity:1"
             id="path12700" /></g></g></g></g></svg>
