<svg height="511pt" viewBox="0 -6 511.9984 511" width="511pt" xmlns="http://www.w3.org/2000/svg"><path d="m454.152344 258.121094h-396.304688c-19.917968 0-36.0625-16.144532-36.0625-36.0625 0-19.914063 16.144532-36.058594 36.0625-36.058594h396.304688c19.914062 0 36.0625 16.144531 36.0625 36.058594 0 19.917968-16.148438 36.0625-36.0625 36.0625zm0 0" fill="#f9c57e"/><path d="m454.152344 258.121094h-396.304688c-19.917968 0-36.0625-16.144532-36.0625-36.0625 0-19.914063 16.144532-36.058594 36.0625-36.058594h396.304688c19.914062 0 36.0625 16.144531 36.0625 36.058594 0 19.917968-16.148438 36.0625-36.0625 36.0625zm0 0" fill="#f72c2c"/><path d="m490.207031 222.0625c0 9.957031-4.039062 18.96875-10.554687 25.496094-6.527344 6.523437-15.539063 10.554687-25.496094 10.554687h-13.152344c7.953125-7.28125 12.929688-17.742187 12.929688-29.375v-8.324219c0-14.675781-7.941406-27.5-19.765625-34.414062h19.984375c19.910156 0 36.054687 16.144531 36.054687 36.0625zm0 0" fill="#e32929"/><path d="m34.941406 287.203125h442.113282v100.101563h-442.113282zm0 0" fill="#8e2d2a"/><path d="m434.167969 287.203125h42.886719v100.101563h-42.886719zm0 0" fill="#771f1f"/><path d="m496.644531 405.488281c3.902344-16.441406-8.550781-32.214843-25.507812-32.214843h-430.273438c-16.960937 0-29.410156 15.773437-25.507812 32.214843 5.960937 25.136719 20.539062 58.695313 56.140625 76.609375 14.480468 7.285156 30.597656 10.746094 46.820312 10.746094h275.363282c16.222656 0 32.339843-3.460938 46.820312-10.746094 35.601562-17.914062 50.179688-51.472656 56.144531-76.609375zm0 0" fill="#f78e3c"/><path d="m496.644531 405.492188c-5.964843 25.132812-20.546875 58.691406-56.140625 76.605468-14.417968 7.253906-30.453125 10.714844-46.597656 10.746094 3.140625-1.425781 6.226562-3.054688 9.238281-4.890625 35.605469-21.605469 50.183594-62.085937 56.140625-92.402344 1.566406-7.953125.5-15.765625-2.425781-22.28125h14.28125c16.953125 0 29.40625 15.777344 25.503906 32.222657zm0 0" fill="#e8782d"/><path d="m300.183594 280.394531h-173.296875l147.0625 131.449219c14.941406 13.355469 37.527343 13.355469 52.46875 0l147.0625-131.449219zm0 0" fill="#ffc143"/><path d="m473.488281 280.398438-147.0625 131.433593c-14.945312 13.355469-37.527343 13.355469-52.472656 0l-4.617187-4.125 142.417968-127.308593zm0 0" fill="#ffb509"/><path d="m20.289062 293.503906c0 7.519532 4.234376 14.53125 11.085938 17.632813 13.3125 6.039062 16.90625 22.140625 36.054688 22.140625 23.570312 0 23.570312-24.390625 47.140624-24.390625 23.570313 0 23.570313 24.390625 47.140626 24.390625 23.566406 0 23.566406-24.390625 47.136718-24.390625 23.570313 0 23.570313 24.390625 47.136719 24.390625 23.570313 0 23.570313-24.390625 47.144531-24.390625 23.570313 0 23.570313 24.390625 47.140625 24.390625 23.570313 0 23.570313-24.390625 47.144531-24.390625 23.570313 0 23.570313 24.390625 47.144532 24.390625 19.15625 0 22.746094-16.101563 36.066406-22.140625 6.847656-3.101563 11.082031-10.113281 11.082031-17.632813 0-19.542968-15.839843-35.382812-35.382812-35.382812h-400.648438c-19.542969 0-35.386719 15.839844-35.386719 35.382812zm0 0" fill="#80cf00"/><path d="m491.707031 293.5c0 7.523438-4.234375 14.53125-11.085937 17.640625-13.3125 6.039063-16.90625 22.136719-36.066406 22.136719-8.75 0-14.257813-3.363282-18.917969-7.597656 5.746093-5.078126 10.148437-11.5625 17.570312-14.925782 6.847657-3.101562 11.078125-10.117187 11.078125-17.632812 0-9.777344-3.964844-18.621094-10.359375-25.027344-5.25-5.238281-12.132812-8.851562-19.828125-9.976562h32.222656c9.769532 0 18.617188 3.960937 25.027344 10.367187 6.398438 6.394531 10.359375 15.246094 10.359375 25.015625zm0 0" fill="#6db000"/><path d="m191.832031 186h-115.640625l98.132813 87.714844c9.972656 8.910156 25.042969 8.910156 35.015625 0l98.132812-87.714844zm0 0" fill="#ffc143"/><path d="m307.476562 186.003906-98.132812 87.703125c-9.972656 8.910157-25.042969 8.910157-35.015625 0l-3.082031-2.753906 95.035156-84.953125h41.195312zm0 0" fill="#ffb509"/><path d="m363.410156 20.261719c-16.949218-5.722657-34.59375-9.082031-52.4375-10.355469-36.203125-2.578125-73.738281-2.582031-109.949218 0-17.84375 1.273438-35.492188 4.632812-52.4375 10.355469-95.902344 32.386719-128.777344 98.414062-140.046876 140.390625-5.125 19.101562 9.144532 37.886718 28.925782 37.886718h437.070312c19.777344 0 34.050782-18.785156 28.921875-37.886718-11.269531-41.980469-44.144531-108.007813-140.046875-140.390625zm0 0" fill="#f78e3c"/><path d="m474.53125 198.535156h-11.175781c3.234375-7.296875 4.273437-15.988281 2.226562-24.738281-11.265625-48.335937-44.148437-124.355469-140.050781-161.644531-.960938-.371094-1.925781-.738282-2.894531-1.097656 13.859375 1.703124 27.53125 4.730468 40.773437 9.207031 95.902344 32.382812 128.785156 98.410156 140.050782 140.390625 5.128906 19.101562-9.152344 37.882812-28.929688 37.882812zm0 0" fill="#e8782d"/><path d="m200.339844 55.242188c-.90625 3.828124-2.332032 7.644531-4.816406 11.367187-1.335938 2-2.914063 3.898437-4.671876 5.613281-10.003906 9.773438-23.714843 11.964844-30.625 4.894532-6.90625-7.074219-4.394531-20.726563 5.613282-30.5 3.332031-3.257813 7.277344-5.832032 11.324218-7.371094 5.824219-2.210938 12.132813-2.671875 18.0625-3.234375 4.261719-.402344 7.363282 2.742187 6.898438 6.996093-.441406 4.011719-.816406 8.128907-1.785156 12.234376zm0 0" fill="#f9efef"/><path d="m190.851562 72.222656c1.753907-1.714844 3.332032-3.609375 4.671876-5.613281 2.492187-3.722656 3.910156-7.542969 4.816406-11.363281.972656-4.113282 1.347656-8.222656 1.789062-12.238282.464844-4.253906-2.640625-7.402343-6.90625-6.996093-.734375.074219-1.480468.132812-2.226562.207031-.359375 3.277344-.757813 6.605469-1.542969 9.929688-.902344 3.820312-2.324219 7.644531-4.816406 11.363281-1.335938 2.003906-2.914063 3.902343-4.671875 5.617187-7.738282 7.558594-17.691406 10.582032-24.988282 8.289063.609376 2.164062 1.6875 4.09375 3.25 5.695312 6.910157 7.074219 20.617188 4.882813 30.625-4.890625zm0 0" fill="#efe2dd"/><path d="m329.644531 37.808594c3.828125.90625 7.648438 2.332031 11.367188 4.820312 2 1.335938 3.898437 2.914063 5.617187 4.671875 9.769532 10.003907 11.960938 23.714844 4.890625 30.621094-7.070312 6.90625-20.726562 4.394531-30.5-5.609375-3.253906-3.335938-5.828125-7.28125-7.367187-11.328125-2.214844-5.820313-2.671875-12.128906-3.234375-18.058594-.40625-4.265625 2.742187-7.367187 6.992187-6.898437 4.015625.441406 8.132813.8125 12.234375 1.78125zm0 0" fill="#f9efef"/><path d="m346.628906 47.300781c-1.714844-1.757812-3.613281-3.335937-5.617187-4.671875-3.71875-2.492187-7.542969-3.914062-11.363281-4.816406-4.109376-.976562-8.222657-1.347656-12.234376-1.789062-4.253906-.464844-7.402343 2.636718-6.996093 6.902343.070312.734375.132812 1.484375.207031 2.230469 3.273438.355469 6.605469.753906 9.929688 1.542969 3.820312.902343 7.640624 2.320312 11.363281 4.8125 2.003906 1.339843 3.898437 2.917969 5.613281 4.671875 7.5625 7.742187 10.582031 17.695312 8.292969 24.992187 2.164062-.613281 4.09375-1.6875 5.695312-3.253906 7.074219-6.910156 4.882813-20.617187-4.890625-30.621094zm0 0" fill="#efe2dd"/><path d="m267.855469 59.371094c2.195312 3.261718 4.035156 6.898437 5.078125 11.25.5625 2.339844.886718 4.789062.957031 7.242187.386719 13.980469-7.308594 25.539063-17.1875 25.8125-9.882813.277344-18.207031-10.835937-18.597656-24.816406-.128907-4.660156.660156-9.304687 2.277343-13.320313 2.324219-5.78125 6.265626-10.726562 9.878907-15.460937 2.59375-3.40625 7.011719-3.550781 9.816406-.324219 2.652344 3.050782 5.421875 6.117188 7.777344 9.617188zm0 0" fill="#f9efef"/><path d="m273.890625 77.867188c-.070313-2.457032-.390625-4.902344-.957031-7.246094-1.039063-4.355469-2.882813-7.992188-5.078125-11.246094-2.355469-3.507812-5.121094-6.570312-7.769531-9.621094-2.8125-3.226562-7.230469-3.085937-9.824219.324219-.445313.589844-.90625 1.179687-1.363281 1.78125 2.164062 2.480469 4.339843 5.035156 6.246093 7.867187 2.195313 3.257813 4.039063 6.894532 5.078125 11.246094.566406 2.34375.886719 4.789063.957032 7.246094.300781 10.8125-4.234376 20.175781-10.871094 23.980469 2.007812 1.023437 4.152344 1.539062 6.394531 1.476562 9.882813-.273437 17.574219-11.828125 17.1875-25.808593zm0 0" fill="#efe2dd"/><path d="m484.539062 368.550781v-51.007812c8.925782-4.445313 14.652344-13.765625 14.652344-24.039063 0-15.113281-7.871094-28.417968-19.71875-36.050781 11.023438-7.910156 18.222656-20.824219 18.222656-35.394531 0-7.449219-1.886718-14.46875-5.199218-20.605469 4.488281-2.460937 8.488281-5.851563 11.722656-10.070313 7.171875-9.351562 9.53125-21.261718 6.46875-32.671874-7.953125-29.625-22.753906-57.351563-42.796875-80.175782-.058594-.070312-.121094-.136718-.183594-.203125l-9.914062-10.476562c-2.847657-2.996094-7.582031-3.125-10.582031-.28125-2.996094 2.84375-3.125 7.582031-.277344 10.582031l9.800781 10.355469c23.355469 26.640625 34.371094 54.984375 39.496094 74.078125 1.847656 6.878906.429687 14.054687-3.886719 19.683594-4.28125 5.578124-10.769531 8.777343-17.808594 8.777343h-437.070312c-7.039063 0-13.53125-3.199219-17.808594-8.777343-4.316406-5.628907-5.734375-12.804688-3.886719-19.683594 7.078125-26.367188 19.457031-50.230469 36.792969-70.925782 24.089844-28.757812 57.203125-50.394531 98.417969-64.3125 15.875-5.363281 32.890625-8.71875 50.574219-9.980468 35.613281-2.542969 73.265624-2.542969 108.886718 0 17.679688 1.257812 34.695313 4.617187 50.574219 9.976562 23.230469 7.847656 44.089844 18.246094 61.996094 30.914063 3.375 2.386719 8.042969 1.585937 10.429687-1.789063 2.390625-3.375 1.585938-8.042968-1.785156-10.429687-19.09375-13.507813-41.25-24.566407-65.851562-32.875-17.082032-5.769531-35.347657-9.378907-54.296876-10.730469-36.320312-2.585938-74.707031-2.585938-111.015624 0-18.953126 1.355469-37.222657 4.964844-54.300782 10.730469-43.859375 14.8125-79.21875 37.988281-105.101562 68.886719-18.746094 22.375-32.128906 48.167968-39.777344 76.65625-3.0625 11.410156-.707031 23.320312 6.464844 32.671874 3.238281 4.21875 7.234375 7.609376 11.726562 10.070313-3.316406 6.136719-5.203125 13.15625-5.203125 20.605469 0 14.570312 7.203125 27.484375 18.226563 35.394531-11.851563 7.632813-19.722656 20.9375-19.722656 36.050781 0 10.273438 5.726562 19.597656 14.65625 24.039063v51.007812c-5.042969 2.175781-9.53125 5.578125-13.050782 10.03125-6.417968 8.117188-8.726562 18.554688-6.339844 28.632813 6.3125 26.601562 21.855469 62.34375 60.0625 81.566406 15.011719 7.554688 32.363282 11.546875 50.183594 11.546875h275.363282c17.820312 0 35.175781-3.992187 50.183593-11.546875 38.207031-19.222656 53.75-54.96875 60.0625-81.566406 2.390625-10.078125.082031-20.515625-6.339843-28.632813-3.519532-4.453125-8.003907-7.855469-13.046876-10.03125zm-10.003906-162.53125c1.058594 0 2.101563-.054687 3.140625-.140625 3.179688 4.601563 5.050781 10.175782 5.050781 16.179688 0 15.757812-12.816406 28.574218-28.574218 28.578125h-207.765625l49.914062-44.617188zm-200.695312 0-69.488282 62.113281c-7.136718 6.378907-17.902343 6.378907-25.039062 0l-69.488281-62.113281zm-244.570313 16.039063c0-6.007813 1.875-11.578125 5.054688-16.179688 1.039062.082032 2.082031.140625 3.140625.140625h49.898437l49.914063 44.617188h-79.433594c-15.757812-.003907-28.574219-12.820313-28.574219-28.578125zm-1.496093 71.445312c0-15.382812 12.515624-27.898437 27.902343-27.898437h98.347657l15.3125 13.6875c6.414062 5.734375 14.453124 8.597656 22.496093 8.597656 8.039063 0 16.082031-2.867187 22.492188-8.597656l15.316406-13.6875h226.683594c15.382812 0 27.898437 12.515625 27.898437 27.898437 0 4.730469-2.625 8.972656-6.691406 10.816406-6.421875 2.914063-10.859375 7.507813-14.777344 11.558594-5.5625 5.753906-9.582031 9.914063-18.195312 9.914063-8.613282 0-12.628906-4.160157-18.191406-9.914063-6.234376-6.449218-13.996094-14.476562-28.957032-14.476562-14.960937 0-22.71875 8.027344-28.949218 14.476562-5.5625 5.753906-9.582032 9.914063-18.191407 9.914063s-12.628906-4.160157-18.1875-9.914063c-6.234375-6.449218-13.996093-14.476562-28.953125-14.476562-14.960937 0-22.71875 8.027344-28.953125 14.476562-5.5625 5.753906-9.578125 9.914063-18.191406 9.914063-8.609375 0-12.625-4.15625-18.1875-9.910157-6.230469-6.453124-13.992187-14.480468-28.949219-14.480468-14.960937 0-22.71875 8.027344-28.949218 14.480468-5.5625 5.753907-9.578126 9.910157-18.1875 9.910157-8.609376 0-12.625-4.15625-18.1875-9.910157-6.230469-6.453124-13.992188-14.480468-28.949219-14.480468-14.960938 0-22.71875 8.027344-28.953125 14.476562-5.5625 5.753906-9.578125 9.914063-18.1875 9.914063-8.613282 0-12.628906-4.15625-18.1875-9.910157-3.917969-4.054687-8.359375-8.648437-14.78125-11.5625-4.0625-1.839843-6.6875-6.085937-6.6875-10.816406zm441.796874 36.734375v35.550781h-80.402343l35.222656-31.484374c4.988281 3.636718 11.3125 6.457031 20.167969 6.457031 11.992187 0 19.351562-5.15625 25.011718-10.523438zm-258.375 35.550781h-168.769531v-35.546874c5.660157 5.363281 13.019531 10.519531 25.003907 10.519531 14.960937 0 22.71875-8.027344 28.953124-14.480469 5.5625-5.753906 9.578126-9.910156 18.1875-9.910156 8.609376 0 12.628907 4.15625 18.191407 9.910156 6.230469 6.453125 13.988281 14.480469 28.949219 14.480469 6.945312 0 12.328124-1.742188 16.738281-4.242188zm278.167969 37.972657c-5.578125 23.503906-19.164062 55.015625-52.226562 71.652343-12.933594 6.507813-27.960938 9.945313-43.457031 9.945313h-275.363282c-15.496094 0-30.519531-3.4375-43.457031-9.945313-33.058594-16.636718-46.644531-48.148437-52.222656-71.652343-1.328125-5.597657-.046875-11.394531 3.515625-15.898438 3.570312-4.515625 8.933594-7.105469 14.710937-7.105469h187.078125l41.019532 36.664063c8.730468 7.800781 19.953124 11.898437 31.296874 11.898437 6.226563 0 12.488282-1.234374 18.394532-3.769531 3.800781-1.625 5.558594-6.027343 3.929687-9.828125-1.628906-3.796875-6.027343-5.558594-9.828125-3.925781-11.339844 4.863281-24.613281 2.691406-33.816406-5.539063l-88.835938-79.402343c.1875-.191407.375-.386719.558594-.574219 5.5625-5.753906 9.578125-9.914062 18.1875-9.914062s12.625 4.160156 18.1875 9.914062c6.234375 6.449219 13.992188 14.476562 28.949219 14.476562 14.960937 0 22.722656-8.027343 28.953125-14.476562 5.5625-5.753906 9.578125-9.914062 18.191406-9.914062 8.609375 0 12.628906 4.160156 18.1875 9.914062 6.234375 6.449219 13.992188 14.476562 28.953125 14.476562 14.960938 0 22.71875-8.027343 28.953125-14.476562 5.558594-5.753906 9.578125-9.914062 18.1875-9.914062 7.445313 0 11.460938 3.113281 16.003906 7.671874l-76.609374 68.480469c-3.082032 2.753907-3.347657 7.484375-.59375 10.566407 2.753906 3.082031 7.484374 3.347656 10.566406.59375l25.644531-22.925782h98.714844c5.777343 0 11.136719 2.589844 14.707031 7.105469 3.5625 4.511719 4.84375 10.304687 3.519531 15.902344zm0 0"/><path d="m194.519531 28.5625-1.28125.121094c-5.804687.539062-12.378906 1.152344-18.730469 3.570312-5.007812 1.902344-9.8125 5.019532-13.898437 9.007813-5.933594 5.800781-9.941406 12.996093-11.277344 20.265625-1.488281 8.097656.53125 15.6875 5.542969 20.820312 4.238281 4.332032 9.953125 6.445313 16.132812 6.445313 8.335938 0 17.519532-3.835938 25.074219-11.214844 2.125-2.078125 4.03125-4.367187 5.664063-6.8125 2.722656-4.070313 4.644531-8.585937 5.878906-13.800781.964844-4.082032 1.382812-7.976563 1.789062-11.746094l.152344-1.394531c.46875-4.273438-.910156-8.394531-3.78125-11.3125-2.875-2.917969-6.984375-4.351563-11.265625-3.949219zm.011719 15.054688c-.375 3.460937-.726562 6.730468-1.476562 9.902343v-.003906c-.824219 3.496094-2.019532 6.335937-3.753907 8.933594-1.054687 1.582031-2.292969 3.066406-3.679687 4.417969-7.519532 7.347656-16.597656 8.542968-20.039063 5.019531-2.152343-2.203125-1.882812-5.742188-1.53125-7.652344.773438-4.191406 3.328125-8.660156 7.019531-12.265625 2.589844-2.53125 5.699219-4.5625 8.757813-5.726562 4.421875-1.683594 9.644531-2.175782 14.703125-2.648438zm0 0"/><path d="m345.171875 36.40625c-4.074219-2.722656-8.589844-4.644531-13.804687-5.878906-4.082032-.964844-7.980469-1.386719-11.753907-1.789063l-1.386719-.152343c-4.269531-.46875-8.394531.90625-11.308593 3.78125-2.917969 2.875-4.359375 6.980468-3.953125 11.265624l.121094 1.273438c.539062 5.804688 1.152343 12.382812 3.570312 18.738281 1.902344 5.003907 5.019531 9.808594 9.007812 13.894531 5.800782 5.9375 12.996094 9.945313 20.265626 11.28125 1.746093.320313 3.464843.476563 5.148437.476563 6.105469 0 11.644531-2.089844 15.671875-6.019531 10.179688-9.949219 8.085938-28.046875-4.769531-41.207032-2.078125-2.128906-4.371094-4.035156-6.808594-5.664062zm1.121094 36.160156c-2.203125 2.152344-5.742188 1.882813-7.65625 1.53125-4.191407-.769531-8.660157-3.328125-12.261719-7.015625-2.53125-2.589843-4.566406-5.703125-5.726562-8.757812-1.679688-4.421875-2.175782-9.648438-2.648438-14.707031h.015625c3.464844.375 6.738281.726562 9.90625 1.476562 3.5.824219 6.335937 2.019531 8.933594 3.757812 1.578125 1.050782 3.066406 2.289063 4.417969 3.679688 7.347656 7.519531 8.539062 16.59375 5.019531 20.035156zm0 0"/><path d="m274.0625 55.1875c-2.34375-3.476562-4.921875-6.429688-7.414062-9.285156l-.921876-1.054688c-2.820312-3.246094-6.785156-5-10.871093-4.898437-4.09375.132812-7.9375 2.167969-10.546875 5.59375l-.78125 1.019531c-3.539063 4.628906-7.550782 9.875-10.089844 16.183594-1.996094 4.96875-2.96875 10.613281-2.808594 16.320312.226563 8.296875 2.796875 16.121094 7.226563 22.035156 4.8125 6.417969 11.527343 10.0625 18.5 10.0625.183593 0 .371093 0 .554687-.007812 14.226563-.394531 24.972656-15.109375 24.460938-33.5-.082032-2.976562-.472656-5.933594-1.160156-8.785156-1.144532-4.757813-3.15625-9.234375-6.148438-13.683594zm-17.566406 41.007812c-3.082032.09375-5.492188-2.511718-6.660156-4.070312-2.554688-3.410156-4.105469-8.320312-4.246094-13.472656-.101563-3.621094.515625-7.285156 1.738281-10.320313 1.761719-4.386719 4.945313-8.5625 8.03125-12.601562l.015625.015625c2.289062 2.625 4.453125 5.101562 6.273438 7.804687 2.003906 2.980469 3.28125 5.78125 4.011718 8.820313.441406 1.84375.695313 3.761718.746094 5.703125.296875 10.507812-4.988281 17.984375-9.910156 18.121093zm0 0"/></svg>