<svg id="Layer_1" enable-background="new 0 0 200 200" viewBox="0 0 200 200" xmlns="http://www.w3.org/2000/svg"><circle cx="101.528" cy="117.119" fill="#45db89" r="45.63"/><g fill="#0a0f33"><path d="m145.959 107.0718c-8.887 6.2482-24.0682 14.0999-45.9588 16.0966-22.1951-2.0244-37.5124-10.056-46.4597-16.4506-1.0103-.7227-2.4165-.4888-3.1387.5225-.7227 1.0107-.4888 2.416.5225 3.1387 9.4287 6.7388 25.562 15.2095 48.8755 17.2935.0649.0056.1298.0082.1937.0084.0014 0 .0027.0004.0041.0004.0008 0 .0016-.0001.0024-.0001s.0016.0001.0024.0001c.0014 0 .0027-.0004.0041-.0004.0639-.0002.1288-.0028.1937-.0084 22.9932-2.0557 38.9824-10.3354 48.3467-16.9189 1.0166-.7148 1.2612-2.1182.5469-3.1348-.7159-1.0163-2.1187-1.2609-3.1348-.547z"/><path d="m136.5732 127.3296c-3.5591 1.8564-7.3281 3.5034-11.2031 4.895-1.1694.4204-1.7769 1.709-1.3569 2.8784.3301.918 1.1953 1.4897 2.1177 1.4897.2524 0 .5093-.0425.7607-.1328 4.0659-1.4604 8.0234-3.1899 11.7627-5.1401 1.1016-.5747 1.5293-1.9341.9546-3.0356-.5742-1.1021-1.9326-1.5298-3.0357-.9546z"/><path d="m145.959 85.5039c-10.4512 7.3481-23.2456 12.5054-36.999 14.9141-2.8037.4907-5.708.8198-8.5171 1.1382l-.4135.047c-22.2111-2.02-37.5376-10.0564-46.4888-16.4537-1.0103-.7222-2.4165-.4883-3.1387.5225-.7227 1.0107-.4888 2.416.5225 3.1387 9.3979 6.7167 25.4608 15.1506 48.6513 17.2692.0324.0062.0665.0059.0994.0107.0424.0038.0824.0097.1248.0135.0126.0011.025.0008.0375.0016.0539.0039.106.015.1607.015.085 0 .1709-.0044.2573-.0146l.6943-.0786c2.8755-.3257 5.8481-.6626 8.7861-1.1768 14.4014-2.522 27.8223-7.939 38.811-15.665 1.0166-.7148 1.2612-2.1182.5469-3.1348-.7158-1.0167-2.1186-1.2609-3.1347-.547z"/><path d="m178.7197 73.3589c-3.8877-2.3691-8.623-2.5371-12.668-.4502l-4.5156 2.3289c-1.3886-2.9835-4.0225-5.3159-7.3301-6.2195-5.1733-1.4136-13.7998-4.666-25.5156-12.1338-19.7885-12.6121-26.9689-13.3403-28.6915-13.2739-1.7274-.0652-8.9109.6685-28.6893 13.2739-11.7158 7.4678-20.3423 10.7202-25.5161 12.1338-3.3073.9036-5.9411 3.236-7.3297 6.2195l-4.5156-2.3289c-4.0454-2.0874-8.7812-1.9189-12.668.4502-3.8867 2.3687-6.2075 6.5005-6.2075 11.0522v11.874c0 8.9746 4.5303 17.1934 12.1177 21.9858l11.1238 7.0256c.9088 2.7249 2.457 5.2147 4.5573 7.1976 8.2153 7.7559 26.5356 21.1729 56.9282 23.8896.0649.0056.1298.0082.1937.0084.0014 0 .0027.0004.0041.0004.0008 0 .0016-.0001.0024-.0001s.0016.0001.0024.0001c.0014 0 .0027-.0004.0041-.0004.0639-.0002.1288-.0028.1937-.0084 30.3926-2.7168 48.7129-16.1338 56.9287-23.8901 2.1-1.9826 3.6481-4.4723 4.5568-7.1971l11.1238-7.0256c7.5874-4.7925 12.1177-13.0112 12.1177-21.9858v-11.874c.0001-4.5517-2.3207-8.6836-6.2074-11.0522zm-159.1469 22.9263v-11.874c0-2.9692 1.5137-5.6646 4.0493-7.2095 2.5352-1.5454 5.6245-1.6548 8.2637-.2939l5.5138 2.8436c-.003.1066-.0133.2118-.0133.319v39.3176l-7.7925-4.9216c-6.275-3.963-10.021-10.7599-10.021-18.1812zm138.541 23.3837c0 3.626-1.4849 7.1079-4.0742 9.5527-7.7739 7.3389-25.121 20.0228-54.0396 22.6594-28.9185-2.6366-46.2657-15.3205-54.0391-22.6589-2.5898-2.4453-4.0747-5.9272-4.0747-9.5532v-39.5986c0-3.1318 2.0947-5.8921 5.0933-6.7114 5.4741-1.4956 14.5581-4.9092 26.749-12.6797 19.3848-12.355 25.8052-12.5693 26.1055-12.5718.0558.0043.1094-.0038.1646-.0037.0561-.0001.1106.008.1674.0037.3003.0024 6.7207.2168 26.1055 12.5718 12.1909 7.7705 21.2749 11.1841 26.7485 12.6797 2.999.8193 5.0938 3.5796 5.0938 6.7114zm22.3134-23.3837c0 7.4214-3.7461 14.2183-10.021 18.1812l-7.7925 4.9216v-39.3177c0-.1072-.0103-.2123-.0133-.319l5.5138-2.8436c2.6387-1.3608 5.7285-1.2515 8.2637.2939 2.5356 1.5449 4.0493 4.2402 4.0493 7.2095z"/></g></svg>