<svg version="1.1" id="Capa_1" xmlns="http://www.w3.org/2000/svg" xmlns:xlink="http://www.w3.org/1999/xlink" x="0px" y="0px" viewBox="0 0 512 512" style="enable-background:new 0 0 512 512;" xml:space="preserve">
<g>
	<g>
		<g>
			<path style="fill:#E49280;" d="M405.192,347.009H106.808c-5.576,0-10.097-4.52-10.097-10.097v-26.076&#10;&#9;&#9;&#9;&#9;c0-5.576,4.52-10.097,10.097-10.097h298.385c5.576,0,10.097,4.52,10.097,10.097v26.076&#10;&#9;&#9;&#9;&#9;C415.289,342.488,410.768,347.009,405.192,347.009z"/>
			<path style="fill:#DD7F66;" d="M405.192,300.739H385.1c5.576,0,10.097,4.521,10.097,10.097v26.076&#10;&#9;&#9;&#9;&#9;c0,5.576-4.521,10.097-10.097,10.097h20.093c5.576,0,10.096-4.521,10.096-10.097v-26.076&#10;&#9;&#9;&#9;&#9;C415.289,305.26,410.769,300.739,405.192,300.739z"/>
			<path style="fill:#8EBAC5;" d="M292.834,375.933h-73.667c-8.129,0-14.718-6.59-14.718-14.718V280.69&#10;&#9;&#9;&#9;&#9;c0-19.36,15.694-35.054,35.054-35.054h32.995c19.36,0,35.054,15.694,35.054,35.054v80.525&#10;&#9;&#9;&#9;&#9;C307.552,369.344,300.962,375.933,292.834,375.933z"/>
			<path style="fill:#7CA1B1;" d="M307.55,280.69v80.53c0,8.12-6.59,14.71-14.72,14.71h-20.09c8.13,0,14.72-6.59,14.72-14.71v-80.53&#10;&#9;&#9;&#9;&#9;c0-19.36-15.7-35.05-35.06-35.05h20.1C291.86,245.64,307.55,261.33,307.55,280.69z"/>
			<path style="fill:#7CA1B1;" d="M303.313,375.933h-94.625c-8.129,0-14.718,6.59-14.718,14.718v0&#10;&#9;&#9;&#9;&#9;c0,8.129,6.59,14.718,14.718,14.718h94.625c8.129,0,14.718-6.59,14.718-14.718v0&#10;&#9;&#9;&#9;&#9;C318.031,382.523,311.441,375.933,303.313,375.933z"/>
			<path style="fill:#678D98;" d="M318.03,390.65c0,8.13-6.59,14.72-14.72,14.72h-20.09c8.13,0,14.72-6.59,14.72-14.72&#10;&#9;&#9;&#9;&#9;c0-4.07-1.65-7.75-4.31-10.41c-2.67-2.66-6.35-4.31-10.41-4.31h20.09c4.07,0,7.75,1.65,10.41,4.31&#10;&#9;&#9;&#9;&#9;C316.38,382.9,318.03,386.58,318.03,390.65z"/>
			<g>
				<g>
					<path style="fill:#8EBAC5;" d="M23.916,375.933H7.5V262.052c0-9.066,7.35-16.416,16.416-16.416h0&#10;&#9;&#9;&#9;&#9;&#9;&#9;c9.066,0,16.416,7.35,16.416,16.416v97.465C40.333,368.583,32.983,375.933,23.916,375.933z"/>
					<path style="fill:#7CA1B1;" d="M86.029,375.933H7.5v14.718c0,8.129,6.59,14.718,14.718,14.718h63.811&#10;&#9;&#9;&#9;&#9;&#9;&#9;c8.129,0,14.718-6.59,14.718-14.718v0C100.747,382.523,94.158,375.933,86.029,375.933z"/>
					<path style="fill:#678D98;" d="M86.029,375.933H65.937c8.129,0,14.718,6.59,14.718,14.718s-6.59,14.718-14.718,14.718h20.093&#10;&#9;&#9;&#9;&#9;&#9;&#9;c8.129,0,14.718-6.59,14.718-14.718S94.158,375.933,86.029,375.933z"/>
				</g>
				<g>
					<path style="fill:#8EBAC5;" d="M488.084,375.933H504.5V262.052c0-9.066-7.35-16.416-16.416-16.416h0&#10;&#9;&#9;&#9;&#9;&#9;&#9;c-9.066,0-16.416,7.35-16.416,16.416v97.465C471.667,368.583,479.017,375.933,488.084,375.933z"/>
					<path style="fill:#7CA1B1;" d="M425.971,375.933H504.5v14.718c0,8.129-6.59,14.718-14.718,14.718h-63.811&#10;&#9;&#9;&#9;&#9;&#9;&#9;c-8.129,0-14.718-6.59-14.718-14.718v0C411.253,382.523,417.842,375.933,425.971,375.933z"/>
					<path style="fill:#678D98;" d="M484.407,375.933v14.718c0,8.129-6.589,14.718-14.718,14.718h20.093&#10;&#9;&#9;&#9;&#9;&#9;&#9;c8.129,0,14.718-6.59,14.718-14.718v-14.718H484.407z"/>
				</g>
			</g>
		</g>
		<g>
			<path style="fill:#CB97E7;" d="M372.616,55.434H139.384c-9.482,0-17.169-7.687-17.169-17.169v0&#10;&#9;&#9;&#9;&#9;c0-9.482,7.687-17.169,17.169-17.169h233.232c9.482,0,17.169,7.687,17.169,17.169v0&#10;&#9;&#9;&#9;&#9;C389.785,47.747,382.098,55.434,372.616,55.434z"/>
			<path style="fill:#EAF6FF;" d="M139.384,55.434h233.232v95.907c0,5.928-4.806,10.734-10.734,10.734H150.118&#10;&#9;&#9;&#9;&#9;c-5.928,0-10.734-4.806-10.734-10.734V55.434z"/>
		</g>
		<g>
			<path style="fill:#BD80E1;" d="M372.616,21.096h-25.093c9.482,0,17.169,7.687,17.169,17.169l0,0&#10;&#9;&#9;&#9;&#9;c0,9.482-7.687,17.169-17.169,17.169h25.093c9.482,0,17.169-7.687,17.169-17.169l0,0&#10;&#9;&#9;&#9;&#9;C389.785,28.782,382.098,21.096,372.616,21.096z"/>
			<path style="fill:#D8ECFE;" d="M352.523,55.434v95.907c0,5.928-4.806,10.734-10.734,10.734h20.093&#10;&#9;&#9;&#9;&#9;c5.928,0,10.734-4.806,10.734-10.734V55.434H352.523z"/>
		</g>
	</g>
	<g>
		<g>
			<path style="fill:none;stroke:#000000;stroke-width:15;stroke-linecap:round;stroke-linejoin:round;stroke-miterlimit:10;" d="&#10;&#9;&#9;&#9;&#9;M204.45,347.01h-97.64c-5.58,0-10.1-4.52-10.1-10.1v-26.07c0-5.58,4.52-10.1,10.1-10.1h97.64"/>
			<path style="fill:none;stroke:#000000;stroke-width:15;stroke-linecap:round;stroke-linejoin:round;stroke-miterlimit:10;" d="&#10;&#9;&#9;&#9;&#9;M342.699,300.74h62.491c5.58,0,10.1,4.52,10.1,10.1v26.07c0,5.58-4.52,10.1-10.1,10.1h-97.64"/>
			<g>
				
					<line style="fill:none;stroke:#000000;stroke-width:15;stroke-linecap:round;stroke-linejoin:round;stroke-miterlimit:10;" x1="126.279" y1="347.009" x2="126.279" y2="490.904"/>
				
					<line style="fill:none;stroke:#000000;stroke-width:15;stroke-linecap:round;stroke-linejoin:round;stroke-miterlimit:10;" x1="385.721" y1="347.009" x2="385.721" y2="490.904"/>
			</g>
			<path style="fill:none;stroke:#000000;stroke-width:15;stroke-linecap:round;stroke-linejoin:round;stroke-miterlimit:10;" d="&#10;&#9;&#9;&#9;&#9;M292.834,375.933h-73.667c-8.129,0-14.718-6.59-14.718-14.718V280.69c0-19.36,15.694-35.054,35.054-35.054h32.995&#10;&#9;&#9;&#9;&#9;c19.36,0,35.054,15.694,35.054,35.054v80.525C307.552,369.344,300.962,375.933,292.834,375.933z"/>
			<path style="fill:none;stroke:#000000;stroke-width:15;stroke-linecap:round;stroke-linejoin:round;stroke-miterlimit:10;" d="&#10;&#9;&#9;&#9;&#9;M303.313,375.933h-94.625c-8.129,0-14.718,6.59-14.718,14.718v0c0,8.129,6.59,14.718,14.718,14.718h94.625&#10;&#9;&#9;&#9;&#9;c8.129,0,14.718-6.59,14.718-14.718v0C318.031,382.523,311.441,375.933,303.313,375.933z"/>
			
				<line style="fill:none;stroke:#000000;stroke-width:15;stroke-linecap:round;stroke-linejoin:round;stroke-miterlimit:10;" x1="256" y1="405.37" x2="256" y2="472.956"/>
			<path style="fill:none;stroke:#000000;stroke-width:15;stroke-linecap:round;stroke-linejoin:round;stroke-miterlimit:10;" d="&#10;&#9;&#9;&#9;&#9;M211.723,490.904v-9.923c0-4.432,3.593-8.025,8.025-8.025h72.504c4.432,0,8.025,3.593,8.025,8.025v9.923"/>
			<g>
				<g>
					<path style="fill:none;stroke:#000000;stroke-width:15;stroke-linecap:round;stroke-linejoin:round;stroke-miterlimit:10;" d="&#10;&#9;&#9;&#9;&#9;&#9;&#9;M23.916,375.933H7.5V262.052c0-9.066,7.35-16.416,16.416-16.416h0c9.066,0,16.416,7.35,16.416,16.416v97.465&#10;&#9;&#9;&#9;&#9;&#9;&#9;C40.333,368.583,32.983,375.933,23.916,375.933z"/>
					<path style="fill:none;stroke:#000000;stroke-width:15;stroke-linecap:round;stroke-linejoin:round;stroke-miterlimit:10;" d="&#10;&#9;&#9;&#9;&#9;&#9;&#9;M86.029,375.933H7.5v14.718c0,8.129,6.59,14.718,14.718,14.718h63.811c8.129,0,14.718-6.59,14.718-14.718v0&#10;&#9;&#9;&#9;&#9;&#9;&#9;C100.747,382.523,94.158,375.933,86.029,375.933z"/>
					
						<line style="fill:none;stroke:#000000;stroke-width:15;stroke-linecap:round;stroke-linejoin:round;stroke-miterlimit:10;" x1="56.502" y1="405.37" x2="56.502" y2="472.956"/>
					<path style="fill:none;stroke:#000000;stroke-width:15;stroke-linecap:round;stroke-linejoin:round;stroke-miterlimit:10;" d="&#10;&#9;&#9;&#9;&#9;&#9;&#9;M12.224,490.904v-9.923c0-4.432,3.593-8.025,8.025-8.025h72.504c4.432,0,8.025,3.593,8.025,8.025v9.923"/>
				</g>
				<g>
					<path style="fill:none;stroke:#000000;stroke-width:15;stroke-linecap:round;stroke-linejoin:round;stroke-miterlimit:10;" d="&#10;&#9;&#9;&#9;&#9;&#9;&#9;M488.084,375.933H504.5V262.052c0-9.066-7.35-16.416-16.416-16.416h0c-9.066,0-16.416,7.35-16.416,16.416v97.465&#10;&#9;&#9;&#9;&#9;&#9;&#9;C471.667,368.583,479.017,375.933,488.084,375.933z"/>
					<path style="fill:none;stroke:#000000;stroke-width:15;stroke-linecap:round;stroke-linejoin:round;stroke-miterlimit:10;" d="&#10;&#9;&#9;&#9;&#9;&#9;&#9;M425.971,375.933H504.5v14.718c0,8.129-6.59,14.718-14.718,14.718h-63.811c-8.129,0-14.718-6.59-14.718-14.718v0&#10;&#9;&#9;&#9;&#9;&#9;&#9;C411.253,382.523,417.842,375.933,425.971,375.933z"/>
					
						<line style="fill:none;stroke:#000000;stroke-width:15;stroke-linecap:round;stroke-linejoin:round;stroke-miterlimit:10;" x1="455.498" y1="405.37" x2="455.498" y2="472.956"/>
					<path style="fill:none;stroke:#000000;stroke-width:15;stroke-linecap:round;stroke-linejoin:round;stroke-miterlimit:10;" d="&#10;&#9;&#9;&#9;&#9;&#9;&#9;M499.776,490.904v-9.923c0-4.432-3.593-8.025-8.025-8.025h-72.504c-4.432,0-8.025,3.593-8.025,8.025v9.923"/>
				</g>
			</g>
		</g>
		<g>
			<path style="fill:none;stroke:#000000;stroke-width:15;stroke-linecap:round;stroke-linejoin:round;stroke-miterlimit:10;" d="&#10;&#9;&#9;&#9;&#9;M372.616,55.434H139.384c-9.482,0-17.169-7.687-17.169-17.169v0c0-9.482,7.687-17.169,17.169-17.169h233.232&#10;&#9;&#9;&#9;&#9;c9.482,0,17.169,7.687,17.169,17.169v0C389.785,47.747,382.098,55.434,372.616,55.434z"/>
			<path style="fill:none;stroke:#000000;stroke-width:15;stroke-linecap:round;stroke-linejoin:round;stroke-miterlimit:10;" d="&#10;&#9;&#9;&#9;&#9;M139.384,55.434h233.232v95.907c0,5.928-4.806,10.734-10.734,10.734H150.118c-5.928,0-10.734-4.806-10.734-10.734V90.653"/>
			
				<line style="fill:none;stroke:#000000;stroke-width:15;stroke-linecap:round;stroke-linejoin:round;stroke-miterlimit:10;" x1="256" y1="182.512" x2="256" y2="162.075"/>
		</g>
	</g>
</g>
<g>
</g>
<g>
</g>
<g>
</g>
<g>
</g>
<g>
</g>
<g>
</g>
<g>
</g>
<g>
</g>
<g>
</g>
<g>
</g>
<g>
</g>
<g>
</g>
<g>
</g>
<g>
</g>
<g>
</g>
</svg>