<svg id="svg569" enable-background="new 0 0 384 347.996" height="512" viewBox="0 0 512 512" width="512" xmlns="http://www.w3.org/2000/svg" xmlns:x="adobe:ns:meta/" xmlns:svg="http://www.w3.org/2000/svg" xmlns:xap="http://ns.adobe.com/xap/1.0/" xmlns:xapgimg="http://ns.adobe.com/xap/1.0/g/img/" xmlns:xapmm="http://ns.adobe.com/xap/1.0/mm/"><g stroke-linecap="round" stroke-linejoin="round"><path id="path79" d="m15.99797 336.00267 23.999962 24.00019h367.999378l23.99996-24.00019v-208.00176l-23.99996-24.00019h-367.999378l-23.999962-24.000192z" fill="#60a6e5" stroke-width="32"/><path id="path81" d="m32.001661 117.22147v210.78304c0 9.02593 6.970281 15.99621 15.996057 15.99621h16.003919c8.835817.002 15.997266 7.1664 15.996056 16.0021h31.999937c.001-8.8357-7.16024-15.99995-15.996056-16.0021h-16.003881c-9.025852 0-15.996056-6.97028-15.996056-15.99621v-208.00176h-16.027352c-5.589505.00003-10.965127-.98703-15.972624-2.78128z" fill="#2c92f9" stroke-width="32"/><g stroke-width="3.78"><path id="path1743" d="m47.97421 23.999986c-26.307327 0-47.97418668 21.67801-47.97418668 47.998451v256.006073c0 26.32041 21.67744268 47.99649 47.99761968 47.99649h16.004031c8.833475-.002 15.99379-7.16266 15.996057-15.99625.0023-8.83661-7.159559-16.00188-15.996057-16.00403h-16.004031c-9.025852 0-15.996057-6.9702-15.996057-15.99621v-210.78304c5.007496 1.79425 10.383118 2.78131 15.972624 2.78128h352.02082c9.02589 0 16.00403 6.97016 16.00403 15.9962v16.00407c.001 8.83435 7.16179 15.99602 15.99605 15.99818 8.83726.002 16.00286-7.16073 16.004-15.99818v-16.00407c0-26.32044-21.68387-47.996444-48.00408-47.996444h-15.99568v-16.004069c0-26.320441-21.6782-47.998451-47.99804-47.998451z"/><path id="path73" d="m47.97421 56.000226h288.0271c9.02589 0 15.99606 6.97217 15.99606 15.998211v16.004069h-304.02316c-8.988435.000038-15.972624-6.978066-15.972624-16.004069 0-9.026041 6.984189-15.998211 15.972624-15.998211z" fill="#675d67"/><path id="path1759" d="m399.99465 184.00428c-26.31984 0-47.9969 21.67703-47.9969 47.99747 0 26.32041 21.67668 47.99747 47.9969 47.99743h64.00089c26.32022 0 48.00446-21.67702 48.00446-47.99743 0-26.32044-21.68424-47.99747-48.00446-47.99747z"/><path id="path72" d="m399.99465 216.00505h64.00089c9.02665 0 16.00403 6.97066 16.00403 15.9967s-6.97814 15.99666-16.00403 15.99666h-64.00089c-9.02585.00004-15.99644-6.97062-15.99644-15.99666s6.97059-15.9967 15.99644-15.9967z" fill="#675d67"/><path id="circle28804-1" d="m224.00011 232.00009c-70.50225 0-127.996306 57.50147-127.996306 128.00368s57.494056 127.99627 127.996306 127.99627 128.00368-57.49406 128.00368-127.99627-57.50143-128.00368-128.00368-128.00368z"/></g><path id="path10" d="m224.00011 264.00105c53.20793 0 96.00276 42.79483 96.00276 96.00272 0 53.20792-42.79483 95.99539-96.00276 95.99535-53.20792 0-95.99539-42.78743-95.99539-95.99535 0-53.20789 42.78747-96.00272 95.99539-96.00272z" fill="#ff5663" stroke-width="3.779"/><path id="path1765" d="m223.99558 296.00227a15.999979 16.000141 0 0 0 -15.99606 15.99817v32.00028h-32.00009a15.999979 16.000141 0 0 0 -16.00399 16.00403 15.999979 16.000141 0 0 0 16.00399 15.99625h32.00009v32.00224a15.999979 16.000141 0 0 0 15.99606 16.00399 15.999979 16.000141 0 0 0 16.00403-16.00399v-32.00224h32.00156a15.999979 16.000141 0 0 0 15.99606-15.99625 15.999979 16.000141 0 0 0 -15.99606-16.00403h-32.00156v-32.00028a15.999979 16.000141 0 0 0 -16.00403-15.99817z" fill="#eaf4ff" stroke-width="3.78"/><path id="path19199" d="m431.99511 296.00325a15.999979 16.000141 0 0 0 -15.99643 15.9967v16.00407c0 9.02604-6.97814 15.99666-16.00403 15.99666h-15.99644a15.999979 16.000141 0 0 0 -16.00399 16.00411 15.999979 16.000141 0 0 0 16.00399 15.9967h15.99644c26.32021 0 48.00446-21.67703 48.00446-47.99747v-16.00407a15.999979 16.000141 0 0 0 -16.004-15.9967z" stroke-width="3.78"/></g></svg>