<svg id="Layer_1" height="512" viewBox="0 0 32 32" width="512" xmlns="http://www.w3.org/2000/svg" data-name="Layer 1"><path d="m2.208 21.225 8.999 8.771h-4.663c-2.255 0-4.103-1.788-4.178-4.041l-.158-4.729z" fill="#f2b705"/><g fill="#f2b705"><circle cx="20.311" cy="23.9" r="2.001"/><circle cx="11.689" cy="18.088" r="2.001"/></g><g fill="#1b113f"><path d="m23.333 30.995h-16.701c-2.99 0-5.424-2.434-5.424-5.424v-9.155c0-2.991 2.434-5.424 5.424-5.424h16.701c2.141 0 4.086 1.264 4.956 3.22l2.036 4.577c.622 1.401.622 3.008 0 4.407l-2.036 4.578c-.87 1.956-2.815 3.22-4.956 3.22zm-16.701-18.002c-1.888 0-3.424 1.536-3.424 3.424v9.155c0 1.888 1.536 3.424 3.424 3.424h16.701c1.352 0 2.579-.798 3.128-2.032l2.036-4.578c.394-.884.394-1.897 0-2.782l-2.036-4.577c-.549-1.235-1.776-2.033-3.128-2.033h-16.701z"/><path d="m26.918 10.617c-.414.022-.821-.206-.965-.595-.214-.579-.669-1.052-1.264-1.279l-14.767-5.654c-.543-.208-1.134-.191-1.666.045-.53.237-.938.667-1.146 1.209l-1.907 4.981c-.197.516-.775.774-1.291.576-.516-.197-.774-.775-.576-1.291l1.845-4.819c.347-.907.944-1.723 1.774-2.228 1.133-.69 2.472-.805 3.682-.342l14.768 5.653c1.125.431 1.989 1.317 2.407 2.406.24.624-.225 1.301-.893 1.337z"/><rect height="2" rx="1" transform="matrix(.559 -.829 .829 .559 -10.351 22.526)" width="12.001" x="9.999" y="19.994"/><g><path d="m20.307 26.9c-.577 0-1.16-.166-1.673-.512-.665-.447-1.115-1.128-1.269-1.915-.153-.786.009-1.586.457-2.25.448-.665 1.129-1.116 1.915-1.27.789-.149 1.587.011 2.252.458.664.447 1.115 1.128 1.269 1.915s-.01 1.586-.458 2.251c-.579.859-1.528 1.322-2.493 1.322zm.007-4.002c-.064 0-.129.007-.193.02-.263.051-.49.201-.64.423s-.203.488-.152.751c.052.263.201.489.423.639.46.308 1.081.188 1.391-.27.149-.223.204-.489.152-.752-.051-.263-.201-.489-.423-.638-.168-.114-.36-.173-.558-.173z"/><path d="m11.683 21.09c-.592 0-1.17-.176-1.672-.514-.664-.448-1.115-1.128-1.269-1.915s.01-1.586.458-2.251c.926-1.373 2.797-1.735 4.166-.812 1.372.925 1.736 2.794.812 4.166-.448.665-1.129 1.116-1.915 1.27-.193.037-.388.056-.58.056zm.008-4.003c-.322 0-.639.155-.832.441-.149.222-.204.488-.152.751.051.262.201.489.423.639.223.149.487.202.751.152.263-.051.49-.201.64-.423.309-.458.187-1.081-.271-1.39-.172-.115-.366-.171-.559-.171z"/></g></g></svg>