<svg id="Icons" height="512" viewBox="0 0 60 60" width="512" xmlns="http://www.w3.org/2000/svg"><path d="m8.374 19 31.336-17.492a4 4 0 0 1 5.442 1.543l3.025 5.419a1.968 1.968 0 0 1 -.412 2.458 8.006 8.006 0 0 0 -2.565 8.072l-.2 3h-37z" fill="#f7c63b"/><path d="m51 39a8.005 8.005 0 0 0 6.44 7.85 1.963 1.963 0 0 1 1.56 1.94v6.21a4 4 0 0 1 -4 4h-50a4 4 0 0 1 -4-4v-32a4 4 0 0 1 4-4h50a4 4 0 0 1 4 4v6.21a1.963 1.963 0 0 1 -1.56 1.94 8.005 8.005 0 0 0 -6.44 7.85z" fill="#e53e53"/><g fill="#262626"><path d="m55 18h-8.971a7.03 7.03 0 0 1 2.382-6.31 2.966 2.966 0 0 0 .639-3.708l-3.025-5.419a5 5 0 0 0 -6.8-1.928l-31.111 17.365h-3.114a5.006 5.006 0 0 0 -5 5v3a1 1 0 0 0 2 0v-3a3 3 0 0 1 3-3h37v2a1 1 0 0 0 2 0v-2h11a3 3 0 0 1 3 3v6.2a.965.965 0 0 1 -.751.965 9 9 0 0 0 0 17.66.965.965 0 0 1 .751.975v6.2a3 3 0 0 1 -3 3h-11v-2a1 1 0 0 0 -2 0v2h-37a3 3 0 0 1 -3-3v-25a1 1 0 0 0 -2 0v25a5.006 5.006 0 0 0 5 5h50a5.006 5.006 0 0 0 5-5v-6.2a2.971 2.971 0 0 0 -2.364-2.928 7 7 0 0 1 0-13.734 2.971 2.971 0 0 0 2.364-2.933v-6.205a5.006 5.006 0 0 0 -5-5zm-14.8-15.619a3 3 0 0 1 4.082 1.157l3.018 5.419a.965.965 0 0 1 -.187 1.208 9.054 9.054 0 0 0 -3.113 7.835h-31.783z"/><path d="m42 52a1 1 0 0 0 2 0v-2a1 1 0 0 0 -2 0z"/><path d="m42 46a1 1 0 0 0 2 0v-2a1 1 0 0 0 -2 0z"/><path d="m42 40a1 1 0 0 0 2 0v-2a1 1 0 0 0 -2 0z"/><path d="m42 34a1 1 0 0 0 2 0v-2a1 1 0 0 0 -2 0z"/><path d="m43 29a1 1 0 0 0 1-1v-2a1 1 0 0 0 -2 0v2a1 1 0 0 0 1 1z"/><path d="m11.293 51.707a1 1 0 0 0 1.414 0l22-22a1 1 0 0 0 -1.414-1.414l-22 22a1 1 0 0 0 0 1.414z"/><path d="m16 38a5 5 0 1 0 -5-5 5.006 5.006 0 0 0 5 5zm0-8a3 3 0 1 1 -3 3 3 3 0 0 1 3-3z"/><path d="m30 42a5 5 0 1 0 5 5 5.006 5.006 0 0 0 -5-5zm0 8a3 3 0 1 1 3-3 3 3 0 0 1 -3 3z"/></g></svg>