<?xml version="1.0" encoding="iso-8859-1"?>
<!-- Generator: Adobe Illustrator 19.0.0, SVG Export Plug-In . SVG Version: 6.00 Build 0)  -->
<svg version="1.1" id="Capa_1" xmlns="http://www.w3.org/2000/svg" xmlns:xlink="http://www.w3.org/1999/xlink" x="0px" y="0px"
	 viewBox="0 0 449.884 449.884" style="enable-background:new 0 0 449.884 449.884;" xml:space="preserve">
<g>
	<rect x="90.51" y="377.593" style="fill:#DDD3D4;" width="25.538" height="12"/>
	<rect x="32.89" y="305.883" style="fill:#DDD3D4;" width="20.772" height="12"/>
	<rect x="92.89" y="267.823" style="fill:#DDD3D4;" width="20.772" height="12"/>
	<rect x="69.5" y="305.883" style="fill:#DDD3D4;" width="72.31" height="12"/>
	<rect y="267.823" style="fill:#DDD3D4;" width="72.31" height="12"/>
</g>
<path style="fill:#DCD3D4;" d="M285.131,230.133l20.314-40.318L409.627,72.009L339.28,19.102
	c-4.896-3.682-11.874-2.531-15.329,2.527l-75.862,111.072l-22.901,10.542l-1.851-4.378c-2.174-5.146-8.116-7.543-13.253-5.35
	l-72.002,30.759c-20.607,8.803-30.413,32.453-22.078,53.255l62.909,160.068h-51.315v12h61.952l36.466,34.564
	c6.4,6.166,19.37,8.414,28.258,8.414h40.771c0,0,0-18.068,0-21.701v-7.032c0-15.026-9.809-27.755-23.368-32.153L255.6,318.607
	l29.395-88.736C285.04,229.961,285.087,230.043,285.131,230.133z"/>
<path style="fill:#F3B5AF;" d="M366.057,14.694L276.47,145.86l-17.107,7.752c0,0,3.3,9.324-10.789,18.437
	c-14.089,9.113-2.72,47.8,19.062,45.755c21.779-2.044,42.668-6.997,53.26,14.681l20.314-40.318L445.39,74.361L366.057,14.694z"/>
<path style="fill:#F2463E;" d="M296.862,383.825c18.668,0,33.801,15.134,33.801,33.802v7.033c0,3.632-2.943,6.576-6.576,6.576
	h-39.703c-8.888,0-17.428-3.445-23.828-9.612l-53.239-51.304l-64.24-160.337c-3.583-8.943,0.632-19.112,9.493-22.897l93.134-39.785
	c5.136-2.194,11.078,0.203,13.252,5.349l1.937,4.583c0.513,1.212-0.038,2.612-1.239,3.151l0,0
	c-14.534,6.523-21.338,23.349-15.424,38.143l0,0c5.52,13.806,20.393,21.407,34.814,17.794l5.828-1.46
	c14.83-3.716,30.007,4.683,34.736,19.222l2.068,6.361l-30.457,91.948l16.584,54.761"/>
<path style="fill:#DC4038;" d="M263.133,157.079c0.51,1.21-0.039,2.61-1.24,3.15c-2.869,1.29-5.449,2.979-7.68,4.979
	c-2.24,2-4.13,4.32-5.64,6.84c-1.05,1.75-1.91,3.591-2.58,5.511c-9.66,11.16-28.591,36.592-20.29,89.499
	c10.528,67.104-7.162,75.761-22.022,89.491l-58.367-146.721c-3.58-8.95,0.63-19.12,9.49-22.899l93.14-39.79
	c5.13-2.19,11.08,0.21,13.25,5.35L263.133,157.079z"/>
<path style="fill:#DCD3D4;" d="M332.524,411.42h-41.15c-6.326,0-12.349-2.709-16.545-7.441l-20.491-23.109
	c-9.77-10.216-24.081-14.733-37.945-11.979l-6.657,1.324l55.577,54.828c6.14,6.057,14.416,9.452,23.041,9.452h44.17L332.524,411.42
	L332.524,411.42z"/>
<path style="fill:#FFFFFF;" d="M175.136,179.819l31.016,77.676c0,0,7,21.333-21.182,48.917l-39.474-95.088
	c-3.71-9.411,2.953-20.47,12.383-24.133L175.136,179.819z"/>
<path style="fill:#DCD3D4;" d="M197.495,290.861c-3.15,4.86-7.35,10.08-12.94,15.551l-39.47-95.09
	c-3.13-7.931,2.855-18.036,9.905-22.896L197.495,290.861z"/>
<g>
	
		<rect x="249.683" y="302.498" transform="matrix(-0.9839 -0.1785 0.1785 -0.9839 451.8217 661.7776)" style="fill:#FFFFFF;" width="12" height="16.129"/>
	
		<rect x="257.232" y="244.44" transform="matrix(-0.9839 -0.1785 0.1785 -0.9839 474.2275 580.5474)" style="fill:#FFFFFF;" width="12" height="48.998"/>
</g>
<g>
	<rect x="394.94" y="426.573" style="fill:#142546;" width="23.967" height="12"/>
	<rect x="11.485" y="426.573" style="fill:#142546;" width="35" height="12"/>
	<path style="fill:#142546;" d="M339.083,426v-7.031c0-16.524-10.119-30.729-24.486-36.739l-14.664-48.416l12.814-38.685
		c4.482,5.9,11.96,11.35,23.925,14.52l3.073-11.6c-16.641-4.409-20.195-13.2-20.801-18.244c0.172,0.004,0.343,0.021,0.516,0.021
		c13.646,0,24.748-11.103,24.748-24.749c0-10.641-6.612-19.777-16.262-23.254l18.271-36.263L449.884,78.335l-8.989-7.949
		L336.2,188.772l-16.059,31.872c-8.473-9.135-21.542-13.461-34.309-10.264l-5.826,1.459c-11.457,2.87-23.402-3.234-27.786-14.2
		c-4.735-11.846,0.671-25.217,12.31-30.441c3.611-1.62,5.541-5.561,4.81-9.314l11.435-7.687l90.237-132.12l-9.909-6.767
		l-88.936,130.213l-8.229,5.532c-1.6-1.748-3.569-3.143-5.832-4.057c-3.995-1.613-8.378-1.568-12.339,0.124l-93.133,39.785
		c-11.763,5.025-17.463,18.773-12.706,30.647l64.718,161.532l53.432,51.488H63.485v12h223.318h39.703h53.646v-12h-41.099
		C339.063,426.384,339.083,426.195,339.083,426z M321.87,267.589l7.001-21.136c2.083,2.276,3.337,5.304,3.337,8.622
		C332.208,261.281,327.75,266.459,321.87,267.589z M191.697,310.506l12.743-19.623c8.349-12.855,9.968-29.043,4.331-43.301
		c-3.682-9.313-8.623-21.689-14.686-36.785l-11.136,4.473c6.055,15.074,10.988,27.432,14.662,36.725
		c4.212,10.653,3.002,22.747-3.236,32.354l-8.138,12.531l-35.172-87.785c-2.352-5.87,0.466-12.666,6.28-15.15l14.519-6.202
		c1.803,4.467,4.528,11.223,7.661,19.011l11.133-4.479c-3.188-7.923-5.953-14.779-7.756-19.246l67.578-28.868
		c1.004-0.43,2.117-0.44,3.133-0.031c1.016,0.41,1.809,1.191,2.234,2.199l0.641,1.514c-15.345,8.747-22.104,27.512-15.411,44.254
		c6.603,16.516,24.596,25.711,41.845,21.387l5.826-1.46c11.725-2.938,23.834,3.765,27.573,15.257l1.46,4.489l-5.275,15.926h-13.121
		v12h9.146l-2.475,7.468h-12.07v12h8.096l-2.475,7.469h-11.846v12h7.871l-2.474,7.469h-9.899v12h5.924l-1.84,5.554l13.799,45.558
		c-0.618-0.029-1.238-0.043-1.861-0.043h-3.545l-22.189-40.043l21.932-100.659l-11.725-2.555l-22.894,105.07l21.16,38.186h-5.55v12
		h14.654v-0.004h8.157c10.994,0,20.518,6.416,25.025,15.701h-32.934c-4.606,0-9-1.977-12.057-5.423l-20.49-23.109l-0.152-0.167
		c-11.246-11.76-27.49-16.887-43.451-13.715l-1.771,0.352L191.697,310.506z M286.803,426.576c-7.373,0-14.355-2.816-19.664-7.932
		l-44.662-43.039c10.229-0.59,20.213,3.258,27.449,10.778l20.412,23.022c5.332,6.012,12.998,9.461,21.035,9.461h35.707
		c0,0.033,0.002,0.066,0.002,0.102v7.031c0,0.318-0.258,0.576-0.576,0.576h-39.703V426.576z"/>
	<rect x="96.45" y="367.383" style="fill:#142546;" width="25.538" height="12"/>
	<rect x="133.54" y="367.383" style="fill:#142546;" width="57.37" height="12"/>
	<rect x="38.828" y="295.673" style="fill:#142546;" width="20.772" height="12"/>
	<rect x="98.83" y="257.613" style="fill:#142546;" width="20.773" height="12"/>
	<rect x="75.43" y="295.673" style="fill:#142546;" width="78.63" height="12"/>
	<rect x="5.934" y="257.613" style="fill:#142546;" width="72.31" height="12"/>
</g>
<g>
</g>
<g>
</g>
<g>
</g>
<g>
</g>
<g>
</g>
<g>
</g>
<g>
</g>
<g>
</g>
<g>
</g>
<g>
</g>
<g>
</g>
<g>
</g>
<g>
</g>
<g>
</g>
<g>
</g>
</svg>
