<svg id="icons" height="512" viewBox="0 0 340 340" width="512" xmlns="http://www.w3.org/2000/svg"><path d="m203.427 74.591-82.568 1.86-.715-32.34c0-6.709 7.953-15.308 7.953-15.308a16.418 16.418 0 0 1 6.717-1.427h56.072a16.479 16.479 0 0 1 16.479 16.48v7.044z" fill="#ff597b"/><path d="m207.365 50.9c-8.7 2.681-22.856 5.4-44.515 5.4-26.38 0-33.31-15.554-34.748-27.479a16.474 16.474 0 0 0 -9.768 15.042v36.972h89.031z" fill="#d64566"/><path d="m93.357 87.608a37.158 37.158 0 1 0 -20.19 68.35h43.465v-55.227z" fill="#91af7c"/><path d="m105.115 79.785a11.817 11.817 0 0 1 14.413-9.136 249.429 249.429 0 0 0 57.3 6.568 189.055 189.055 0 0 0 56.713-8.517 9.071 9.071 0 0 1 11.859 7.663c.688 7.32 1.484 17.121 1.844 26.448 0 0-4.748 32.024-33.114 29.769l-99.67.386-7.905-10.8c-.554-4.835-3.59-17.657-3.59-17.657a139.125 139.125 0 0 1 2.15-24.724z" fill="#84b8f5"/><path d="m65.746 136.4a11.846 11.846 0 0 1 -2.351-.234c-10.495-2.09-16.395-10.355-14.685-20.566a23.135 23.135 0 0 1 26.637-19c7.461 1.249 13.487 5.056 16.967 10.719 3.843 6.256 4.423 14.209 1.675 23a3.5 3.5 0 1 1 -6.681-2.088c2.126-6.8 1.795-12.768-.958-17.248-2.44-3.97-6.645-6.557-12.159-7.48a16.135 16.135 0 0 0 -18.577 13.25c-1.087 6.5 2.333 11.186 9.15 12.545 3.109.628 6.26-2.037 7.388-4.857a4.728 4.728 0 0 0 -1.987-6.285 3.5 3.5 0 0 1 3.742-5.916 11.728 11.728 0 0 1 4.745 14.8c-1.936 4.845-6.936 9.36-12.906 9.36z" fill="#5c7742"/><path d="m246.853 124.044c.692-5.447.7-13.163.393-21.233-20.394 12.06-46.669 12.064-46.669 12.064h-75.643c-12.111 0-18.616-5.6-21.964-10.362a169.065 169.065 0 0 0 .979 19.33c1.429 12.461 9.8 11.5 9.8 11.5h101.251c28.36 2.257 31.853-11.299 31.853-11.299z" fill="#5389d6"/><path d="m156.02 67.571a8.036 8.036 0 0 1 8.036 8.036v60.7a0 0 0 0 1 0 0h-16.073a0 0 0 0 1 0 0v-60.7a8.036 8.036 0 0 1 8.036-8.036z" fill="#636375"/><path d="m199.329 67.571a8.036 8.036 0 0 1 8.036 8.036v60.7a0 0 0 0 1 0 0h-16.072a0 0 0 0 1 0 0v-60.7a8.036 8.036 0 0 1 8.036-8.036z" fill="#636375"/><rect fill="#636375" height="85.077" rx="14.566" transform="matrix(.981 .195 -.195 .981 41.165 -3.726)" width="40.117" x="19.399" y="164.144"/><path d="m325.874 243.355v-20.63l-24.581-32.085-27.063-.74a19.155 19.155 0 0 1 -16.166-10.016 242.015 242.015 0 0 0 -19.67-30.96 37.223 37.223 0 0 0 -29.509-14.6h-89.766a38.66 38.66 0 0 0 -27.526 11.476 169.875 169.875 0 0 0 -30.293 41.671l-13.353 40.829a125.5 125.5 0 0 0 -1.37 23.837l15.523 9.3h254.5z" fill="#ffc05d"/><path d="m301.293 190.64v15.691a15.972 15.972 0 0 0 15.221 15.954l9.36.44s2.941-32.085-24.581-32.085z" fill="#fff8e4"/><path d="m61.3 187.471a25.114 25.114 0 0 1 4.365 2.217 16.168 16.168 0 0 1 7.426 15.251l-.771 7.911a18.245 18.245 0 0 1 -22.3 16q-1.021-.238-2.072-.55s4.24-25.223 13.352-40.829z" fill="#ff597b"/><path d="m113.4 153.228a23.954 23.954 0 0 0 -4.581 3.3 79.666 79.666 0 0 0 -17.689 24.62 8.265 8.265 0 0 0 7.47 11.792h7.633a7.164 7.164 0 0 0 7.164-7.165z" fill="#424256"/><rect fill="#424256" height="42.805" rx="6.486" width="39.843" x="128.433" y="150.135"/><path d="m234.867 181.706a113.808 113.808 0 0 0 -12.9-24.453 17.151 17.151 0 0 0 -13.94-7.118h-17.587a7.125 7.125 0 0 0 -7.126 7.126v28.552a7.126 7.126 0 0 0 7.126 7.127h36.724a8.251 8.251 0 0 0 7.703-11.234z" fill="#424256"/><path d="m138.594 213.165h-10.16a3.5 3.5 0 0 1 0-7h10.16a3.5 3.5 0 0 1 0 7z" fill="#f28539"/><path d="m193.475 213.165h-10.161a3.5 3.5 0 0 1 0-7h10.161a3.5 3.5 0 0 1 0 7z" fill="#f28539"/><path d="m309.142 270.891a16.732 16.732 0 0 0 16.732-16.732v-10.8c-8.134 7.991-19.06 8.784-19.06 8.784h-260.23c.037.968.078 1.938.137 2.915a16.785 16.785 0 0 0 16.714 15.837z" fill="#f28539"/><circle cx="108.64" cy="271.326" fill="#636375" r="41.297"/><circle cx="108.64" cy="271.326" fill="#fff" r="19.187"/><circle cx="261.93" cy="271.326" fill="#636375" r="41.297"/><circle cx="261.93" cy="271.326" fill="#fff" r="19.187"/><g fill="#424256"><path d="m329.374 222.865c.149-1.916 1.064-17.668-8.076-27.683-4.848-5.313-11.544-8.017-19.9-8.04h-.009l-27.034-.743a15.714 15.714 0 0 1 -13.214-8.184 245.259 245.259 0 0 0 -19.972-31.425 40.681 40.681 0 0 0 -9.2-8.707c15.477-3.158 18.149-12.675 18.275-13.165a3.292 3.292 0 0 0 .082-.432c1.481-11.652.036-32.778-1.438-48.448a12.341 12.341 0 0 0 -5.522-9.175 12.669 12.669 0 0 0 -10.886-1.5 172.061 172.061 0 0 1 -21.613 5.29v-26.8a20 20 0 0 0 -19.979-19.98h-56.074a20 20 0 0 0 -19.98 19.98v23.1a15.477 15.477 0 0 0 -6.506 2.333 14.947 14.947 0 0 0 -6.651 9.839c-.522 2.75-.933 5.581-1.258 8.44l-5.25-2.96a40.662 40.662 0 1 0 -32.269 73.548 3.541 3.541 0 0 0 .883.113 3.5 3.5 0 0 0 .88-6.888 33.664 33.664 0 1 1 26.79-60.834c.061.039.122.078.185.113l8.125 4.582a174.214 174.214 0 0 0 .708 29 19.8 19.8 0 0 0 3.313 9.491 42.1 42.1 0 0 0 -14.684 9.61 178.6 178.6 0 0 0 -22.857 28.517 18.1 18.1 0 0 0 -12.4-9.251l-10.774-2.148a18.094 18.094 0 0 0 -21.25 14.186l-10.934 54.866a18.065 18.065 0 0 0 14.186 21.249l10.773 2.148a17.94 17.94 0 0 0 7.269-.053c.034.8.066 1.609.115 2.412a20.326 20.326 0 0 0 20.207 19.125h.525a44.785 44.785 0 0 0 89.361 0h52.524a3.5 3.5 0 0 0 0-7h-52.59a44.787 44.787 0 0 0 -89.229 0h-.591a13.318 13.318 0 0 1 -13.221-12.549 122.629 122.629 0 0 1 .683-22.268 21.734 21.734 0 0 0 24.903-19.384l.771-7.911a19.553 19.553 0 0 0 -9.043-18.552c-.5-.318-.983-.594-1.443-.85a168.146 168.146 0 0 1 28-37.619 35.377 35.377 0 0 1 25.034-10.435h89.767a33.935 33.935 0 0 1 26.732 13.229 238.132 238.132 0 0 1 19.369 30.494 22.759 22.759 0 0 0 19.146 11.854l23.66.651v12.285a19.447 19.447 0 0 0 18.557 19.45l6.024.283v28.1a13.247 13.247 0 0 1 -13.232 13.232h-2.6a44.812 44.812 0 1 0 .066 7h2.532a20.255 20.255 0 0 0 20.232-20.232zm-220.733 10.664a37.8 37.8 0 1 1 -37.8 37.8 37.84 37.84 0 0 1 37.8-37.8zm-64.141-5.807a.211.211 0 0 1 0 .025l-.006.023a129.362 129.362 0 0 0 -1.478 17.867 10.912 10.912 0 0 1 -5.8.405l-10.774-2.148a11.066 11.066 0 0 1 -8.689-13.015l10.937-54.866a11.085 11.085 0 0 1 13.01-8.689l10.774 2.147a11.093 11.093 0 0 1 8.891 10.486c-1.07 1.9-2.122 3.837-3.139 5.835-9.29 15.979-13.553 40.876-13.726 41.93zm25.107-23.122-.772 7.911a14.746 14.746 0 0 1 -16.824 13.161c1.341-6.619 4.894-22.113 10.777-33.623.322.181.66.381 1.008.6a12.59 12.59 0 0 1 5.811 11.951zm74.877-73.776h-25.366a41.861 41.861 0 0 0 -7.425.679c-2.889-1.2-3.919-5.021-4.267-8.057-1.28-11.164-1.656-28.325 1.128-43.008a8.012 8.012 0 0 1 3.575-5.265 8.408 8.408 0 0 1 6.582-1.12 237.791 237.791 0 0 0 25.773 4.617zm16.072 0h-9.072v-55.217a4.536 4.536 0 0 1 9.072 0zm27.237 0h-20.237v-50.292c3.094.11 6.2.185 9.274.185 3.64 0 7.314-.1 10.963-.3zm16.072 0h-9.072v-55.217a4.536 4.536 0 0 1 9.072 0zm0-65.82a11.527 11.527 0 0 0 -15.85 8.364c-6.853.393-13.781.414-20.658.152a11.522 11.522 0 0 0 -22.179-1.82 232.189 232.189 0 0 1 -23.344-4.125v-23.719a12.994 12.994 0 0 1 12.98-12.98h56.072a12.994 12.994 0 0 1 12.979 12.98zm16.127 67.084c-.019 0-6.314-1.065-9.127-1.206v-53.116a180.013 180.013 0 0 0 23.74-5.731 5.688 5.688 0 0 1 4.9.666 5.373 5.373 0 0 1 2.413 3.99c1.168 12.433 2.905 34.917 1.5 46.606-.432 1.112-4.238 9.08-23.426 8.79zm41.938 177.036a37.8 37.8 0 1 1 37.8-37.8 37.841 37.841 0 0 1 -37.8 37.8zm54.749-90.335a12.457 12.457 0 0 1 -11.886-12.458v-11.978a17.853 17.853 0 0 1 11.315 5.525c5.234 5.717 6.22 14.443 6.339 19.182z"/><path d="m111.686 150.174a27.593 27.593 0 0 0 -5.248 3.784 83.521 83.521 0 0 0 -18.474 25.7 11.764 11.764 0 0 0 10.636 16.782h7.632a10.676 10.676 0 0 0 10.668-10.664v-32.548a3.5 3.5 0 0 0 -5.211-3.054zm-1.789 35.6a3.669 3.669 0 0 1 -3.665 3.664h-7.632a4.765 4.765 0 0 1 -4.306-6.8 77.419 77.419 0 0 1 15.6-22.313z"/><path d="m134.92 146.634a10 10 0 0 0 -9.986 9.987v29.833a10 10 0 0 0 9.986 9.986h26.87a10 10 0 0 0 9.987-9.986v-29.833a10 10 0 0 0 -9.987-9.987zm29.857 9.987v29.833a2.99 2.99 0 0 1 -2.987 2.986h-26.87a2.99 2.99 0 0 1 -2.986-2.986v-29.833a2.99 2.99 0 0 1 2.986-2.987h26.87a2.99 2.99 0 0 1 2.987 2.987z"/><path d="m236.882 191.309a11.716 11.716 0 0 0 1.245-10.876 118.141 118.141 0 0 0 -13.313-25.221 20.691 20.691 0 0 0 -16.784-8.578h-17.589a10.639 10.639 0 0 0 -10.627 10.627v28.552a10.639 10.639 0 0 0 10.627 10.627h36.723a11.761 11.761 0 0 0 9.718-5.131zm-50.068-5.5v-28.548a3.631 3.631 0 0 1 3.627-3.627h17.589a13.672 13.672 0 0 1 11.1 5.659 111.1 111.1 0 0 1 12.48 23.685 4.75 4.75 0 0 1 -4.442 6.462h-36.727a3.631 3.631 0 0 1 -3.627-3.627z"/><path d="m108.641 294.013a22.687 22.687 0 1 0 -22.688-22.686 22.711 22.711 0 0 0 22.688 22.686zm0-38.374a15.687 15.687 0 1 1 -15.688 15.688 15.7 15.7 0 0 1 15.688-15.688z"/><path d="m261.93 248.639a22.687 22.687 0 1 0 22.687 22.688 22.714 22.714 0 0 0 -22.687-22.688zm0 38.374a15.687 15.687 0 1 1 15.687-15.686 15.705 15.705 0 0 1 -15.687 15.686z"/></g></svg>